<svg xmlns="http://www.w3.org/2000/svg" viewBox="0 0 403 404" enable-background="new 0 0 403 404">
    <path fill="#fff" stroke="#000" stroke-miterlimit="10" d="M363.5 389.7H39.2c-14.6 0-26.5-11.9-26.5-26.5V38.8c0-14.6 11.9-26.5 26.5-26.5h324.3c14.6 0 26.5 11.9 26.5 26.5v324.3c0 14.7-11.9 26.6-26.5 26.6zM350.1 338.3H53.5"/>
    <g fill="none" stroke="#A3A3A3" stroke-miterlimit="10">
        <path d="M83.2 338.3v-.5"/>
        <path stroke-dasharray="1.0018,1.0018" d="M83.2 336.8v-294"/>
        <path d="M83.2 42.3v-.5"/>
        <path d="M112.8 338.3v-.5"/>
        <path stroke-dasharray="1.0018,1.0018" d="M112.8 336.8v-294"/>
        <path d="M112.8 42.3v-.5"/>
        <path d="M142.5 338.3v-.5"/>
        <path stroke-dasharray="1.0018,1.0018" d="M142.5 336.8v-294"/>
        <path d="M142.5 42.3v-.5"/>
        <path d="M172.1 338.3v-.5"/>
        <path stroke-dasharray="1.0018,1.0018" d="M172.1 336.8v-294"/>
        <path d="M172.1 42.3v-.5"/>
        <path d="M201.8 338.3v-.5"/>
        <path stroke-dasharray="1.0018,1.0018" d="M201.8 336.8v-294"/>
        <path d="M201.8 42.3v-.5"/>
        <path d="M231.4 338.3v-.5"/>
        <path stroke-dasharray="1.0018,1.0018" d="M231.4 336.8v-294"/>
        <path d="M231.4 42.3v-.5"/>
        <path d="M261.1 338.3v-.5"/>
        <path stroke-dasharray="1.0018,1.0018" d="M261.1 336.8v-294"/>
        <path d="M261.1 42.3v-.5"/>
        <path d="M290.8 338.3v-.5"/>
        <path stroke-dasharray="1.0018,1.0018" d="M290.8 336.8v-294"/>
        <path d="M290.8 42.3v-.5"/>
        <path d="M320.4 338.3v-.5"/>
        <path stroke-dasharray="1.0018,1.0018" d="M320.4 336.8v-294"/>
        <path d="M320.4 42.3v-.5"/>
        <path d="M350.1 338.3v-.5"/>
        <path stroke-dasharray="1.0018,1.0018" d="M350.1 336.8v-294"/>
        <path d="M350.1 42.3v-.5"/>
        <path d="M53.5 71.5h.5"/>
        <path stroke-dasharray="1.0018,1.0018" d="M55 71.5h294.1"/>
        <path d="M349.6 71.5h.5"/>
        <path d="M53.5 101.1h.5"/>
        <path stroke-dasharray="1.0018,1.0018" d="M55 101.1h294.1"/>
        <path d="M349.6 101.1h.5"/>
        <path d="M53.5 41.8h.5"/>
        <path stroke-dasharray="1.0018,1.0018" d="M55 41.8h294.1"/>
        <path d="M349.6 41.8h.5"/>
        <path d="M53.5 130.8h.5"/>
        <path stroke-dasharray="1.0018,1.0018" d="M55 130.8h294.1"/>
        <path d="M349.6 130.8h.5"/>
        <path d="M53.5 160.4h.5"/>
        <path stroke-dasharray="1.0018,1.0018" d="M55 160.4h294.1"/>
        <path d="M349.6 160.4h.5"/>
        <path d="M53.5 190.1h.5"/>
        <path stroke-dasharray="1.0018,1.0018" d="M55 190.1h294.1"/>
        <path d="M349.6 190.1h.5"/>
        <path d="M53.5 219.7h.5"/>
        <path stroke-dasharray="1.0018,1.0018" d="M55 219.7h294.1"/>
        <path d="M349.6 219.7h.5"/>
        <path d="M53.5 249.4h.5"/>
        <path stroke-dasharray="1.0018,1.0018" d="M55 249.4h294.1"/>
        <path d="M349.6 249.4h.5"/>
        <path d="M53.5 279h.5"/>
        <path stroke-dasharray="1.0018,1.0018" d="M55 279h294.1"/>
        <path d="M349.6 279h.5"/>
        <path d="M53.5 308.7h.5"/>
        <path stroke-dasharray="1.0018,1.0018" d="M55 308.7h294.1"/>
        <path d="M349.6 308.7h.5"/>
    </g>
    <g>
        <text transform="translate(248.333 35)" font-family="'Helvetica'" font-size="12">
            Post-test Probability
        </text>
        <text transform="translate(265.333 374)" font-family="'Helvetica'" font-size="12">
            negative (-)
        </text>
        <text transform="translate(36.334 41.822)" font-family="'Helvetica'" font-size="10.982">
            1.0
        </text>
        <text transform="translate(36.334 101.126)" font-family="'Helvetica'" font-size="10.982">
            0.8
        </text>
        <text transform="translate(36.334 160.43)" font-family="'Helvetica'" font-size="10.982">
            0.6
        </text>
        <text transform="translate(36.334 219.733)" font-family="'Helvetica'" font-size="10.982">
            0.4
        </text>
        <text transform="translate(36.334 279.037)" font-family="'Helvetica'" font-size="10.982">
            0.2
        </text>
        <text transform="translate(105.888 350.421)" font-family="'Helvetica'" font-size="10.982">
            0.2
        </text>
        <text transform="translate(165.191 350.421)" font-family="'Helvetica'" font-size="10.982">
            0.4
        </text>
        <text transform="translate(224.495 350.421)" font-family="'Helvetica'" font-size="10.982">
            0.6
        </text>
        <text transform="translate(283.799 350.421)" font-family="'Helvetica'" font-size="10.982">
            0.8
        </text>
        <text transform="translate(343.103 350.421)" font-family="'Helvetica'" font-size="10.982">
            1.0
        </text>
        <text transform="translate(36.334 350.421)" font-family="'Helvetica'" font-size="10.982">
            0.0
        </text>
        <text transform="translate(172.333 374)" font-family="'Helvetica'" font-size="12">
            positive (+)
        </text>
    </g>
    <path fill="none" stroke="#00f" stroke-width="2" stroke-miterlimit="10" d="M233 371h24"/>
    <path fill="none" stroke="#f00" stroke-width="2" stroke-miterlimit="10" d="M326 371h24"/>
    <g transform="translate(53.5, 42)">
        <rect x="0" y="0" width="297" height="296" stroke="black" fill="transparent" stroke-width="1"/>
        <path fill="none" stroke="#f00" stroke-width="2" stroke-miterlimit="10" d="M0,296 L0.297,269.06642402183803 L0.594,246.58430717863106 L0.891,227.53430994602928 L1.188,211.1862464183381 L1.485,197.00334448160535 L1.782,184.58218318695106 L2.079,173.613703484938 L2.376,163.85714285714286 L2.6730000000000005,155.12215758857747 L2.9700000000000006,147.25628140703515 L3.267000000000001,140.13595021541406 L3.564000000000001,133.65996343692868 L3.8610000000000015,127.7446436379536 L4.158000000000001,122.32020117351212 L4.455000000000002,117.327967806841 L4.7520000000000024,112.71826625386993 L5.049000000000002,108.44875139768911 L5.346000000000003,104.48310567936736 L5.643000000000003,100.79000347101697 L5.940000000000003,97.34228187919459 L6.237000000000004,94.11627151672619 L6.534000000000003,91.09125235997476 L6.831000000000004,88.24900823924315 L7.1280000000000046,85.57345971563979 L7.425000000000004,83.0503597122302 L7.722000000000005,80.66703973139337 L8.019000000000005,78.41219711407567 L8.316000000000006,76.27571580063622 L8.613000000000005,74.24851459571167 L8.910000000000005,72.3224181360201 L9.207000000000006,70.49004669451946 L9.504000000000007,68.74472168905947 L9.801000000000007,67.08038434497303 L10.098000000000006,65.49152542372877 L10.395000000000007,63.97312430011192 L10.692000000000007,62.5205959684487 L10.989000000000008,61.12974479948528 L11.286000000000008,59.796724065518646 L11.583000000000009,58.518000411437924 L11.880000000000008,57.29032258064515 L12.177000000000008,56.11069381300649 L12.474000000000009,54.976347421481165 L12.77100000000001,53.88472512840019 L13.06800000000001,52.83345780433157 L13.365000000000009,51.82034830430794 L13.66200000000001,50.84335613971908 L13.95900000000001,49.900583760834934 L14.25600000000001,48.99026425591097 L14.553000000000011,48.11075029909415 L14.85000000000001,47.26050420168065 L15.147000000000011,46.438088940320654 L15.444000000000011,45.642160052049405 L15.741000000000012,44.87145829998394 L16.03800000000001,44.124803025527854 L16.33500000000001,43.401086113266075 L16.632000000000012,42.699266503667474 L16.929000000000013,42.01836519644735 L17.226000000000013,41.357460694156 L17.523000000000014,40.71568484139743 L17.820000000000014,40.09221902017288 L18.117000000000015,39.4862906662878 L18.414000000000016,38.89717007565139 L18.711000000000013,38.32416747270963 L19.008000000000013,37.76663031624861 L19.305000000000014,37.22394082044383 L19.602000000000015,36.69551367135654 L19.899000000000015,36.18079392113191 L20.196000000000012,35.67925504397306 L20.493000000000013,35.190397139573406 L20.790000000000013,34.713745271122264 L21.087000000000014,34.248847926267274 L21.384000000000015,33.79527559055117 L21.681000000000015,33.352619423848296 L21.978000000000016,32.92049003122747 L22.275000000000016,32.49851632047478 L22.572000000000017,32.0863444392304 L22.869000000000018,31.68363678534149 L23.166000000000018,31.2900710846136 L23.463000000000015,30.905339530665458 L23.760000000000016,30.529147982062796 L24.057000000000016,30.161215212329523 L24.354000000000017,29.801272208817693 L24.651000000000018,29.44906151676247 L24.948000000000018,29.104336625160954 L25.24500000000002,28.766861391396674 L25.54200000000002,28.436409501786784 L25.83900000000002,28.112763965463387 L26.13600000000002,27.795716639209218 L26.433000000000018,27.48506778106207 L26.730000000000018,27.180625630676047 L27.02700000000002,26.88220601458687 L27.32400000000002,26.589631974673523 L27.62100000000002,26.302733418242383 L27.91800000000002,26.021346788278663 L28.21500000000002,25.745314752522802 L28.51200000000002,25.47448591012943 L28.809000000000022,25.208714514759947 L29.106000000000023,24.947860213044294 L29.403000000000024,24.691787797426173 L29.70000000000002,24.440366972477023 L29.99700000000002,24.193472133830312 L30.294000000000022,23.950982158947568 L30.591000000000022,23.712780208984555 L30.888000000000023,23.478753541076458 L31.185000000000024,23.24879333040809 L31.482000000000024,23.02279450147904 L31.779000000000025,22.800655568015145 L32.07600000000002,22.58227848101268 L32.373000000000026,22.367568484437243 L32.67000000000002,22.15643397813284 L32.96700000000003,21.948786387521864 L33.264000000000024,21.744540039708795 L33.56100000000003,21.543612045622353 L33.858000000000025,21.345922187856104 L34.15500000000003,21.151392813887753 L34.45200000000003,20.959948734379964 L34.749000000000024,20.77151712628148 L35.04600000000003,20.58602744046675 L35.343000000000025,20.4034113136687 L35.64000000000003,20.223602484471996 L35.937000000000026,20.046536713152022 L36.23400000000003,19.87215170515367 L36.53100000000003,19.70038703802078 L36.82800000000003,19.531184091593843 L37.12500000000002,19.364485981308405 L37.422000000000025,19.20023749443368 L37.71900000000002,19.038385029101903 L38.01600000000003,18.878876535985967 L38.313000000000024,18.721661462493614 L38.61000000000003,18.566690699351113 L38.907000000000025,18.41391652945805 L39.20400000000003,18.26329257890245 L39.501000000000026,18.114773770028933 L39.79800000000003,17.968316276461508 L40.09500000000003,17.823877479986038 L40.392000000000024,17.681415929203524 L40.68900000000003,17.540891299869486 L40.986000000000026,17.402264356840817 L41.28300000000003,17.26549691755298 L41.58000000000003,17.130551816958246 L41.87700000000003,16.997392873855176 L42.17400000000003,16.865984858546938 L42.47100000000003,16.73629346176682 L42.76800000000003,16.608285264813844 L43.06500000000003,16.481927710843365 L43.36200000000003,16.357189077261523 L43.65900000000003,16.234038449173795 L43.95600000000003,16.11244569384104 L44.25300000000003,15.992381436099265 L44.55000000000003,15.873817034700323 L44.84700000000003,15.756724559533495 L45.144000000000034,15.641076769690926 L45.44100000000003,15.526847092339096 L45.738000000000035,15.414009602363649 L46.03500000000003,15.302539002753122 L46.332000000000036,15.192410605692032 L46.62900000000003,15.08360031433233 L46.92600000000003,14.976084605215704 L47.223000000000035,14.869840511319524 L47.52000000000003,14.764845605700714 L47.817000000000036,14.661077985713462 L48.11400000000003,14.558516257776716 L48.41100000000004,14.457139522670218 L48.708000000000034,14.356927361336716 L49.00500000000004,14.257859821170996 L49.302000000000035,14.15991740277616 L49.59900000000004,14.063081047168168 L49.896000000000036,13.96733212341195 L50.19300000000003,13.872652416671372 L50.49000000000004,13.779024116657297 L50.787000000000035,13.686429806458818 L51.08400000000004,13.594852451741701 L51.381000000000036,13.504275390301757 L51.67800000000004,13.414682321957628 L51.97500000000004,13.326057298772184 L52.27200000000004,13.238384715588325 L52.56900000000004,13.151649300869167 L52.866000000000035,13.065836107829455 L53.16300000000004,12.980930505849074 L53.460000000000036,12.896918172157257 L53.75700000000004,12.813785083778214 L54.05400000000004,12.73151750972761 L54.35100000000004,12.650102003452389 L54.64800000000004,12.569525395503774 L54.94500000000004,12.489774786435419 L55.24200000000004,12.410837539919612 L55.539000000000044,12.332701276072328 L55.83600000000004,12.255353864980634 L56.13300000000004,12.178783420425134 L56.43000000000004,12.102978293791011 L56.72700000000004,12.027927068160125 L57.02400000000004,11.953618552578916 L57.32100000000004,11.880041776495716 L57.618000000000045,11.80718598436107 L57.91500000000004,11.735040630386607 L58.212000000000046,11.66359537345619 L58.50900000000004,11.592840072184572 L58.80600000000005,11.522764780118393 L59.103000000000044,11.453359741075303 L59.40000000000004,11.384615384615358 L59.697000000000045,11.31652232164214 L59.99400000000004,11.249071340127614 L60.29100000000005,11.18225340095745 L60.588000000000044,11.116059633893201 L60.88500000000005,11.05048133364636 L61.182000000000045,10.985509956062458 L61.47900000000005,10.921137114409362 L61.776000000000046,10.857354575768795 L62.07300000000005,10.794154257526145 L62.37000000000005,10.731528223955934 L62.667000000000044,10.66946868290006 L62.96400000000005,10.60796798253591 L63.261000000000045,10.547018608231042 L63.55800000000005,10.48661317948256 L63.85500000000005,10.426744446937391 L64.15200000000004,10.367405289492524 L64.44900000000005,10.308588711470861 L64.74600000000005,10.250287839872442 L65.04300000000005,10.192495921696548 L65.34000000000005,10.135206321334522 L65.63700000000004,10.078412518029609 L65.93400000000005,10.02210810340324 L66.23100000000005,9.966286779044026 L66.52800000000005,9.910942354159488 L66.82500000000005,9.856068743286812 L67.12200000000006,9.801659964062651 L67.41900000000005,9.747710135048749 L67.71600000000005,9.694213473612763 L68.01300000000005,9.641164293861664 L68.31000000000006,9.58855700462766 L68.60700000000006,9.53638610750346 L68.90400000000005,9.48464619492654 L69.20100000000005,9.433331948310979 L69.49800000000005,9.382438136224437 L69.79500000000006,9.331959612610717 L70.09200000000006,9.281891315054963 L70.38900000000005,9.232228263091201 L70.68600000000005,9.182965556550755 L70.98300000000006,9.134098373950792 L71.28000000000006,9.08562197092084 L71.57700000000006,9.037531678667733 L71.87400000000005,8.989822902476135 L72.17100000000005,8.94249112024579 L72.46800000000006,8.89553188106214 L72.76500000000006,8.848940803801213 L73.06200000000005,8.802713575767086 L73.35900000000005,8.7568459513613 L73.65600000000006,8.711333750782728 L73.95300000000006,8.666172858757932 L74.25000000000004,8.621359223300942 L74.54700000000005,8.576888854501135 L74.84400000000005,8.532757823339011 L75.14100000000005,8.488962260529036 L75.43800000000005,8.445498355388963 L75.73500000000006,8.402362354734237 L76.03200000000005,8.359550561797732 L76.32900000000005,8.317059335173724 L76.62600000000005,8.274885087785378 L76.92300000000006,8.23302428587516 L77.22000000000006,8.191473448017916 L77.51700000000005,8.150229144155901 L77.81400000000005,8.10928799465438 L78.11100000000005,8.068646669379007 L78.40800000000006,8.028301886792406 L78.70500000000006,7.988250413071398 L79.00200000000005,7.948489061242412 L79.29900000000005,7.909014690336448 L79.59600000000006,7.869824204561951 L79.89300000000006,7.830914552495358 L80.19000000000005,7.792282726289216 L80.48700000000005,7.753925760896891 L80.78400000000005,7.715840733314224 L81.08100000000006,7.678024761836809 L81.37800000000006,7.640475005333144 L81.67500000000005,7.603188662533228 L81.97200000000005,7.566162971331721 L82.26900000000006,7.529395208106109 L82.56600000000006,7.492882687048564 L82.86300000000006,7.456622759512243 L83.16000000000005,7.42061281337044 L83.45700000000006,7.384850272389713 L83.75400000000006,7.349332595615181 L84.05100000000006,7.314057276768779 L84.34800000000006,7.279021843659848 L84.64500000000005,7.2442238576073805 L84.94200000000006,7.209660912874369 L85.23900000000006,7.175330636113301 L85.53600000000006,7.141230685822677 L85.83300000000006,7.107358751815184 L86.13000000000007,7.073712554695362 L86.42700000000006,7.0402898453486955 L86.72400000000006,7.007088404440253 L87.02100000000006,6.974106041923562 L87.31800000000005,6.941340596558803 L87.61500000000007,6.908789935441121 L87.91200000000006,6.876451953537469 L88.20900000000006,6.844324573232882 L88.50600000000006,6.812405743885677 L88.80300000000007,6.780693441390781 L89.10000000000007,6.749185667752442 L89.39700000000006,6.7178804506639835 L89.69400000000006,6.686775843096655 L89.99100000000006,6.655869922895761 L90.28800000000007,6.625160792384861 L90.58500000000006,6.594646577977244 L90.88200000000006,6.564325429794849 L91.17900000000006,6.534195521294521 L91.47600000000007,6.504255048901314 L91.77300000000007,6.474502231648273 L92.07000000000006,6.44493531082361 L92.36700000000006,6.415552549624067 L92.66400000000007,6.386352232814829 L92.96100000000007,6.357332666395735 L93.25800000000007,6.328492177273574 L93.55500000000006,6.299829112940813 L93.85200000000006,6.27134184115971 L94.14900000000007,6.243028749652581 L94.44600000000007,6.214888245797681 L94.74300000000007,6.186918756330385 L95.04000000000006,6.159118727050213 L95.33700000000007,6.131486622532748 L95.63400000000007,6.104020925847067 L95.93100000000007,6.076720138278176 L96.22800000000007,6.049582779054276 L96.52500000000006,6.022607385079084 L96.82200000000007,5.995792510668991 L97.11900000000007,5.96913672729454 L97.41600000000007,5.942638623326957 L97.71300000000006,5.916296803788953 L98.01000000000008,5.890109890109898 L98.30700000000007,5.864076519885089 L98.60400000000007,5.83819534663985 L98.90100000000007,5.812465039597271 L99.19800000000008,5.786884283449751 L99.49500000000008,5.761451778135495 L99.79200000000007,5.736166238617784 L100.08900000000007,5.711026394668693 L100.38600000000007,5.686030990656377 L100.68300000000008,5.6611787853360624 L100.98000000000008,5.636468551644498 L101.27700000000007,5.611899076498162 L101.57400000000007,5.587469160594424 L101.87100000000008,5.5631776182166846 L102.16800000000008,5.5390232770424745 L102.46500000000007,5.5150049779547885 L102.76200000000007,5.49112157485672 L103.05900000000007,5.467371934489279 L103.35600000000008,5.443754936251821 L103.65300000000008,5.420269472026121 L103.95000000000007,5.396914446002825 L104.24700000000007,5.3736887745112085 L104.54400000000008,5.350591385851374 L104.84100000000008,5.327621220129629 L105.13800000000008,5.304777229096146 L105.43500000000007,5.282058375985571 L105.73200000000007,5.259463635360305 L106.02900000000008,5.236991992956007 L106.32600000000008,5.214642445529876 L106.62300000000008,5.192414000711494 L106.92000000000007,5.1703056768558895 L107.21700000000008,5.148316502898808 L107.51400000000008,5.126445518214894 L107.81100000000008,5.104691772477452 L108.10800000000008,5.083054325521118 L108.40500000000009,5.061532247206117 L108.70200000000008,5.040124617285244 L108.99900000000008,5.018830525272506 L109.29600000000008,4.997649070314196 L109.59300000000007,4.9765793610615106 L109.89000000000009,4.955620515546116 L110.18700000000008,4.934771661056459 L110.48400000000008,4.914031934017146 L110.78100000000008,4.8934004798692285 L111.07800000000009,4.872876452953221 L111.37500000000009,4.852459016393425 L111.67200000000008,4.832147341984069 L111.96900000000008,4.8119406100774995 L112.26600000000008,4.791838009473736 L112.56300000000009,4.771838737312123 L112.86000000000008,4.751941998964298 L113.15700000000008,4.732147007928916 L113.45400000000008,4.712452985728248 L113.75100000000009,4.692859161805927 L114.04800000000009,4.673364773426272 L114.34500000000008,4.653969065575836 L114.64200000000008,4.634671290865526 L114.93900000000009,4.615470709434533 L115.23600000000009,4.596366588856199 L115.53300000000009,4.577358204044401 L115.83000000000008,4.5584448371623125 L116.12700000000008,4.539625777531512 L116.42400000000009,4.520900321543422 L116.72100000000009,4.502267772571258 L117.01800000000009,4.483727440883854 L117.31500000000008,4.46527864356068 L117.6120000000001,4.446920704407489 L117.90900000000009,4.428652953874405 L118.20600000000009,4.410474728973838 L118.50300000000009,4.392385373200625 L118.80000000000008,4.3743842364531815 L119.0970000000001,4.356470674955176 L119.39400000000009,4.33864405117896 L119.69100000000009,4.320903733770194 L119.98800000000008,4.3032490974729285 L120.2850000000001,4.285679523056331 L120.5820000000001,4.2681943972423255 L120.87900000000009,4.250793112634085 L121.17600000000009,4.233475067645941 L121.4730000000001,4.216239666433694 L121.7700000000001,4.19908631882663 L122.06700000000009,4.182014440260048 L122.36400000000009,4.165023451708635 L122.66100000000009,4.1481127796213855 L122.9580000000001,4.131281855856685 L123.2550000000001,4.114530117619097 L123.55200000000009,4.097857007396158 L123.84900000000009,4.081261972896925 L124.1460000000001,4.064744466990703 L124.4430000000001,4.0483039476471845 L124.7400000000001,4.031939877876937 L125.03700000000009,4.015651725673024 L125.33400000000009,3.9994389639534234 L125.6310000000001,3.9833010705040124 L125.9280000000001,3.9672375279225776 L126.2250000000001,3.9512478235635626 L126.52200000000009,3.935331449483499 L126.8190000000001,3.919487902387175 L127.1160000000001,3.9037166835746575 L127.4130000000001,3.888017298888883 L127.7100000000001,3.8723892586642137 L128.0070000000001,3.8568320776752216 L128.3040000000001,3.8413452750868373 L128.60100000000008,3.825928374404441 L128.8980000000001,3.8105809034253753 L129.1950000000001,3.7953023941904007 L129.4920000000001,3.7800923829363455 L129.7890000000001,3.764950410049039 L130.0860000000001,3.7498760200171546 L130.3830000000001,3.7348687613863945 L130.6800000000001,3.719928186714526 L130.9770000000001,3.7050538525269303 L131.2740000000001,3.690245319272549 L131.5710000000001,3.675502151280739 L131.8680000000001,3.6608239167185843 L132.1650000000001,3.6462101875485473 L132.4620000000001,3.6316605394870862 L132.7590000000001,3.6171745519633873 L133.0560000000001,3.602751808079006 L133.3530000000001,3.588391894567792 L133.6500000000001,3.5740944017563265 L133.94700000000012,3.559858923525155 L134.2440000000001,3.545685057270248 L134.5410000000001,3.5315724038650274 L134.8380000000001,3.517520567622853 L135.1350000000001,3.5035291562601856 L135.4320000000001,3.489597780859924 L135.7290000000001,3.47572605583548 L136.0260000000001,3.461913598895137 L136.3230000000001,3.4481600310070917 L136.62000000000012,3.4344649763643815 L136.91700000000012,3.4208280623512337 L137.2140000000001,3.4072489195087314 L137.5110000000001,3.393727181501788 L137.8080000000001,3.380262485086064 L138.1050000000001,3.3668544700754524 L138.4020000000001,3.3535027793100767 L138.6990000000001,3.340207058624287 L138.9960000000001,3.3269669568156814 L139.29300000000012,3.3137821256140683 L139.59000000000012,3.3006522196507717 L139.8870000000001,3.287576896428618 L140.1840000000001,3.2745558162923203 L140.4810000000001,3.2615886423986353 L140.7780000000001,3.248675040687715 L141.0750000000001,3.2358146798542293 L141.3720000000001,3.223007231319059 L141.6690000000001,3.2102523692013847 L141.96600000000012,3.197549770290948 L142.26300000000012,3.184899114020766 L142.56000000000012,3.1723000824402448 L142.8570000000001,3.1597523601884063 L143.1540000000001,3.14725563446774 L143.4510000000001,3.134809595018112 L143.7480000000001,3.122413934091071 L144.0450000000001,3.110068346424555 L144.3420000000001,3.097772529217764 L144.63900000000012,3.085526182106321 L144.93600000000012,3.073329007138227 L145.23300000000012,3.0611807087490774 L145.53000000000011,3.0490809937386416 L145.8270000000001,3.03702957124716 L146.1240000000001,3.025026152731982 L146.4210000000001,3.013070451944486 L146.7180000000001,3.0011621849076278 L147.0150000000001,2.989301069893031 L147.31200000000013,2.977486827398991 L147.60900000000012,2.9657191801287013 L147.90600000000012,2.9539978529680866 L148.20300000000012,2.9423225729648266 L148.50000000000009,2.930693069306926 L148.7970000000001,2.919109073301854 L149.0940000000001,2.907570318355738 L149.3910000000001,2.8960765399531283 L149.6880000000001,2.8846274756365915 L149.9850000000001,2.873222864986758 L150.2820000000001,2.861862449602711 L150.5790000000001,2.850545973082262 L150.8760000000001,2.839273181002909 L151.17300000000012,2.828043820902508 L151.4700000000001,2.8168576422606293 L151.7670000000001,2.805714396479857 L152.0640000000001,2.79461383686737 L152.3610000000001,2.7835557186166398 L152.6580000000001,2.772539798789637 L152.9550000000001,2.761565836298928 L153.2520000000001,2.7506335918900504 L153.5490000000001,2.739742828124122 L153.84600000000012,2.7288933093607852 L154.14300000000011,2.7180848017410995 L154.4400000000001,2.7073170731707137 L154.7370000000001,2.6965898933034396 L155.0340000000001,2.6859030335244256 L155.3310000000001,2.6752562669344684 L155.6280000000001,2.664649368333471 L155.9250000000001,2.6540821142048117 L156.2220000000001,2.643554282699654 L156.51900000000012,2.633065653621202 L156.81600000000012,2.6226160084096932 L157.1130000000001,2.612205130126881 L157.4100000000001,2.601832803441198 L157.7070000000001,2.591498814612919 L158.0040000000001,2.5812029514794403 L158.3010000000001,2.5709450034407837 L158.5980000000001,2.5607247614450444 L158.8950000000001,2.550542017974635 L159.19200000000012,2.540396567031678 L159.48900000000012,2.530288204124588 L159.78600000000012,2.520216726254091 L160.0830000000001,2.5101819318996945 L160.3800000000001,2.500183621006215 L160.6770000000001,2.490221594970592 L160.9740000000001,2.4802956566284706 L161.2710000000001,2.4704056102416416 L161.5680000000001,2.4605512614846248 L161.86500000000012,2.450732417432448 L162.16200000000012,2.4409488865477442 L162.45900000000012,2.4312004786684156 L162.7560000000001,2.4214870049952992 L163.0530000000001,2.4118082780798886 L163.3500000000001,2.4021641118123966 L163.6470000000001,2.392554321409932 L163.9440000000001,2.3829787234042783 L164.2410000000001,2.3734371356306383 L164.53800000000012,2.363929377215925 L164.83500000000012,2.3544552685673352 L165.13200000000012,2.345014631361096 L165.42900000000012,2.3356072885310937 L165.7260000000001,2.3262330642580196 L166.0230000000001,2.316891783958397 L166.3200000000001,2.3075832742735543 L166.6170000000001,2.298307363059166 L166.91400000000013,2.2890638793742824 L167.21100000000013,2.2798526534712664 L167.50800000000012,2.2706735167851093 L167.80500000000012,2.2615263019232543 L168.10200000000012,2.2524108426552516 L168.39900000000011,2.243326973902981 L168.6960000000001,2.2342745317304775 L168.9930000000001,2.2252533533341534 L169.2900000000001,2.2162632770329083 L169.58700000000013,2.2073041422586925 L169.88400000000013,2.1983757895467306 L170.18100000000013,2.1894780605262554 L170.47800000000012,2.1806107979109584 L170.77500000000012,2.171773845489838 L171.07200000000012,2.1629670481180483 L171.3690000000001,2.1541902517075755 L171.6660000000001,2.1454433032187126 L171.9630000000001,2.1367260506507364 L172.26000000000013,2.128038343033211 L172.55700000000013,2.11938003041746 L172.85400000000013,2.1107509638677584 L173.15100000000012,2.102150995452803 L173.44800000000012,2.0935799782371873 L173.74500000000012,2.0850377662734445 L174.04200000000012,2.076524214593178 L174.3390000000001,2.068039179199161 L174.6360000000001,2.059582517057379 L174.93300000000013,2.051154086088559 L175.23000000000013,2.0427537451607236 L175.52700000000013,2.0343813540808924 L175.82400000000013,2.026036773587464 L176.12100000000012,2.0177198653424284 L176.41800000000012,2.0094304919238652 L176.71500000000012,2.001168516818325 L177.0120000000001,1.9929338044130418 L177.3090000000001,1.9847262199889997 L177.60600000000014,1.9765456297133142 L177.90300000000013,1.9683919006318433 L178.20000000000013,1.9602649006622528 L178.49700000000013,1.9521644985867397 L178.79400000000012,1.944090564045041 L179.09100000000012,1.9360429675272144 L179.38800000000012,1.9280215803671013 L179.68500000000012,1.9200262747351644 L179.9820000000001,1.9120569236318374 L180.27900000000014,1.9041134008806466 L180.57600000000014,1.8961955811217308 L180.87300000000013,1.8883033398051907 L181.17000000000013,1.880436553184552 L181.46700000000013,1.8725950983102848 L181.76400000000012,1.8647788530233242 L182.06100000000012,1.8569876959488738 L182.35800000000012,1.849221506490153 L182.65500000000014,1.84148016482186 L182.95200000000014,1.833763551884374 L183.24900000000014,1.8260715493774455 L183.54600000000013,1.8184040397542844 L183.84300000000013,1.8107609062153642 L184.14000000000013,1.8031420327027945 L184.43700000000013,1.795547303894125 L184.73400000000012,1.787976605196718 L185.03100000000012,1.7804298227420077 L185.32800000000015,1.7729068433796442 L185.62500000000014,1.765407554671981 L185.92200000000014,1.7579318448883328 L186.21900000000014,1.7504796029996896 L186.51600000000013,1.743050718672805 L186.81300000000013,1.7356450822651937 L187.11000000000013,1.7282625848192765 L187.40700000000012,1.7209031180576062 L187.70400000000012,1.7135665743770687 L188.00100000000015,1.7062528468437677 L188.29800000000014,1.6989618291879651 L188.59500000000014,1.6916934157989658 L188.89200000000014,1.684447501719717 L189.18900000000014,1.67722398264209 L189.48600000000013,1.6700227549016518 L189.78300000000013,1.6628437154728317 L190.08000000000013,1.6556867619639775 L190.37700000000012,1.648551792612352 L190.67400000000015,1.6414387062796436 L190.97100000000015,1.6343474024467355 L191.26800000000014,1.6272777812094432 L191.56500000000014,1.6202297432734554 L191.86200000000014,1.613203189949786 L192.15900000000013,1.6061980231503412 L192.45600000000013,1.5992141453830868 L192.75300000000013,1.5922514597477289 L193.05000000000013,1.5853098699311658 L193.34700000000015,1.5783892802029413 L193.64400000000015,1.5714895954109807 L193.94100000000014,1.5646107209773277 L194.23800000000014,1.5577525628935405 L194.53500000000014,1.5509150277165986 L194.83200000000014,1.544098022564583 L195.12900000000013,1.5373014551125834 L195.42600000000013,1.530525233588321 L195.72300000000013,1.5237692667682836 L196.02000000000015,1.517033463973462 L196.31700000000015,1.5103177350652572 L196.61400000000015,1.5036219904415589 L196.91100000000014,1.4969461410327654 L197.20800000000014,1.4902900982977485 L197.50500000000014,1.4836537742201017 L197.80200000000013,1.4770370813039335 L198.09900000000013,1.470439932570514 L198.39600000000016,1.4638622415539544 L198.69300000000015,1.45730392229774 L198.99000000000015,1.4507648893509781 L199.28700000000015,1.4442450577644763 L199.58400000000015,1.4377443430872745 L199.88100000000014,1.4312626613630641 L200.17800000000014,1.424799929126209 L200.47500000000014,1.4183560633984484 L200.77200000000013,1.4119309816854297 L201.06900000000016,1.405524601972843 L201.36600000000016,1.399136842723351 L201.66300000000015,1.392767622872725 L201.96000000000015,1.3864168618267172 L202.25700000000015,1.38008447945748 L202.55400000000014,1.3737703961002694 L202.85100000000014,1.3674745325502613 L203.14800000000014,1.3611968100588 L203.44500000000014,1.3549371503306133 L203.74200000000016,1.3486954755201737 L204.03900000000016,1.3424717082289135 L204.33600000000015,1.3362657715013029 L204.63300000000015,1.3300775888225758 L204.93000000000015,1.3239070841148646 L205.22700000000015,1.317754181734358 L205.52400000000014,1.3116188064682888 L205.82100000000014,1.3055008835318063 L206.11800000000014,1.2994003385648512 L206.41500000000016,1.2933170976290853 L206.71200000000016,1.2872510872052771 L207.00900000000016,1.2812022341899478 L207.30600000000015,1.2751704658925291 L207.60300000000015,1.269155710032635 L207.90000000000015,1.2631578947368212 L208.19700000000014,1.2571769485361983 L208.49400000000014,1.2512128003631346 L208.79100000000014,1.245265379548698 L209.08800000000016,1.239334615819871 L209.38500000000016,1.2334204392965944 L209.68200000000016,1.2275227804892097 L209.97900000000016,1.2216415702956738 L210.27600000000015,1.215776739998887 L210.57300000000015,1.2099282212639082 L210.87000000000015,1.20409594613551 L211.16700000000014,1.1982798470352236 L211.46400000000014,1.192479856759178 L211.76100000000017,1.1866959084750306 L212.05800000000016,1.1809279357196942 L212.35500000000016,1.1751758723967214 L212.65200000000016,1.1694396527739173 L212.94900000000015,1.1637192114804975 L213.24600000000015,1.1580144835048714 L213.54300000000015,1.152325404192311 L213.84000000000015,1.1466519092418253 L214.13700000000017,1.140993934704852 L214.43400000000017,1.1353514169817345 L214.73100000000017,1.1297242928200149 L215.02800000000016,1.124112499311991 L215.32500000000016,1.1185159738921016 L215.62200000000016,1.1129346543348788 L215.91900000000015,1.1073684787523916 L216.21600000000015,1.1018173855922555 L216.51300000000015,1.0962813136351883 L216.81000000000017,1.090760201992623 L217.10700000000017,1.0852539901048317 L217.40400000000017,1.0797626177383108 L217.70100000000016,1.0742860249840191 L217.99800000000016,1.0688241522547628 L218.29500000000016,1.0633769402833195 L218.59200000000016,1.0579443301202218 L218.88900000000015,1.05252626313154 L219.18600000000015,1.0471226809970062 L219.48300000000017,1.0417335257075706 L219.78000000000017,1.0363587395636955 L220.07700000000017,1.0309982651730252 L220.37400000000017,1.025652045448453 L220.67100000000016,1.0203200236060752 L220.96800000000016,1.015002143163315 L221.26500000000016,1.0096983479365917 L221.56200000000015,1.004408582039673 L221.85900000000015,0.999132789881628 L222.15600000000018,0.9938709161647807 L222.45300000000017,0.9886229058828349 L222.75000000000017,0.9833887043189407 L223.04700000000017,0.9781682570438761 L223.34400000000016,0.9729615099141142 L223.64100000000016,0.9677684090698335 L223.93800000000016,0.9625889009332695 L224.23500000000016,0.9574229322067254 L224.53200000000015,0.9522704498708094 L224.82900000000018,0.9471314011824461 L225.12600000000018,0.9420057336735113 L225.42300000000017,0.9368933951485019 L225.72000000000017,0.9317943336831149 L226.01700000000017,0.9267084976224282 L226.31400000000016,0.9216358355791385 L226.61100000000016,0.9165762964317992 L226.90800000000016,0.911529829323058 L227.20500000000015,0.906496383658066 L227.50200000000018,0.9014759091027713 L227.79900000000018,0.8964683555821011 L228.09600000000017,0.8914736732785968 L228.39300000000017,0.8864918126304246 L228.69000000000017,0.8815227243299546 L228.98700000000017,0.8765663593218278 L229.28400000000016,0.8716226688019901 L229.58100000000016,0.8666916042153048 L229.87800000000018,0.8617731172545291 L230.17500000000018,0.8568671598584956 L230.47200000000018,0.8519736842105203 L230.76900000000018,0.8470926427370387 L231.06600000000017,0.8422239881058999 L231.36300000000017,0.8373676732248896 L231.66000000000017,0.8325236512400807 L231.95700000000016,0.8276918755346969 L232.25400000000016,0.8228722997271234 L232.5510000000002,0.8180648776698263 L232.84800000000018,0.8132695634476477 L233.14500000000018,0.8084863113764413 L233.44200000000018,0.8037150760017084 L233.73900000000017,0.7989558120968923 L234.03600000000017,0.7942084746620708 L234.33300000000017,0.789473018922763 L234.63000000000017,0.7847494003282236 L234.92700000000016,0.7800375745501924 L235.2240000000002,0.7753374974813596 L235.52100000000019,0.7706491252342289 L235.81800000000018,0.7659724141396396 L236.11500000000018,0.7613073207452317 L236.41200000000018,0.7566538018144229 L236.70900000000017,0.7520118143248737 L237.00600000000017,0.7473813154671234 L237.30300000000017,0.7427622626433958 L237.60000000000016,0.7381546134663495 L237.8970000000002,0.7335583257574854 L238.1940000000002,0.7289733575462378 L238.49100000000018,0.7243996670683259 L238.78800000000018,0.7198372127649009 L239.08500000000018,0.7152859532808975 L239.38200000000018,0.7107458474638975 L239.67900000000017,0.7062168543631628 L239.97600000000017,0.7016989332279309 L240.27300000000017,0.697192043506675 L240.5700000000002,0.6926961448453994 L240.8670000000002,0.6882111970869573 L241.1640000000002,0.6837371602693452 L241.46100000000018,0.6792739946249071 L241.75800000000018,0.6748216605790276 L242.05500000000018,0.6703801187488807 L242.35200000000017,0.6659493299422934 L242.64900000000017,0.6615292551567791 L242.9460000000002,0.6571198555780597 L243.2430000000002,0.6527210925792701 L243.5400000000002,0.6483329277196503 L243.8370000000002,0.6439553227433521 L244.13400000000019,0.6395882395785293 L244.43100000000018,0.6352316403360874 L244.72800000000018,0.6308854873086602 L245.02500000000018,0.6265497429694733 L245.32200000000017,0.6222243699712067 L245.6190000000002,0.6179093311452561 L245.9160000000002,0.6136045895000848 L246.2130000000002,0.6093101082207113 L246.5100000000002,0.605025850667289 L246.8070000000002,0.6007517803744236 L247.10400000000018,0.596487861049809 L247.40100000000018,0.5922340565732611 L247.69800000000018,0.587990330995865 L247.99500000000018,0.5837566485388379 L248.2920000000002,0.5795329735925066 L248.5890000000002,0.5753192707153403 L248.8860000000002,0.5711155046330418 L249.1830000000002,0.5669216402374673 L249.4800000000002,0.5627376425855459 L249.77700000000019,0.5585634768985983 L250.07400000000018,0.5543991085611424 L250.37100000000018,0.5502445031199272 L250.66800000000018,0.5460996262831941 L250.9650000000002,0.5419644439194258 L251.2620000000002,0.5378389220567783 L251.5590000000002,0.5337230268817734 L251.8560000000002,0.5296167247386734 L252.1530000000002,0.5255199821284009 L252.4500000000002,0.5214327657075728 L252.74700000000018,0.5173550422878748 L253.04400000000018,0.5132867788349245 L253.34100000000018,0.5092279424672483 L253.6380000000002,0.5051785004558837 L253.9350000000002,0.5011384202230147 L254.2320000000002,0.4971076693412897 L254.5290000000002,0.49308621553296916 L254.8260000000002,0.4890740266691296 L255.1230000000002,0.48507107076858347 L255.4200000000002,0.4810773159971973 L255.71700000000018,0.47709273066709557 L256.0140000000002,0.47311728323563784 L256.3110000000002,0.46915094230479326 L256.6080000000002,0.46519367662011746 L256.9050000000002,0.46124545507012726 L257.20200000000017,0.45730624668527753 L257.4990000000002,0.45337602063733584 L257.7960000000002,0.44945474623847304 L258.0930000000002,0.4455423929404674 L258.3900000000002,0.4416389303339656 L258.6870000000002,0.437744328147744 L258.9840000000002,0.43385855624774194 L259.2810000000002,0.4299815846363231 L259.5780000000002,0.42611338345176364 L259.87500000000017,0.42225392296717246 L260.1720000000002,0.4184031735899225 L260.4690000000002,0.4145611058606278 L260.7660000000002,0.4107276904529158 L261.0630000000002,0.40690289817200664 L261.3600000000002,0.4030866999545992 L261.6570000000002,0.39927906686767756 L261.9540000000002,0.3954799701079992 L262.2510000000002,0.39168938100141304 L262.5480000000002,0.3879072710018363 L262.8450000000002,0.384133611691027 L263.1420000000002,0.3803683747773903 L263.4390000000002,0.37661153209552367 L263.7360000000002,0.372863055605535 L264.0330000000002,0.3691229173921897 L264.3300000000002,0.3653910896644561 L264.6270000000002,0.3616675447544253 L264.9240000000002,0.3579522551171408 L265.22100000000023,0.35424519332940463 L265.5180000000002,0.35054633208949326 L265.8150000000002,0.3468556442163049 L266.1120000000002,0.3431731026486773 L266.4090000000002,0.33949868044499 L266.7060000000002,0.3358323507819705 L267.0030000000002,0.3321740869545806 L267.3000000000002,0.32852386237516384 L267.5970000000002,0.32488165057259266 L267.89400000000023,0.3212474251921549 L268.1910000000002,0.3176211599942462 L268.4880000000002,0.3140028288543135 L268.7850000000002,0.31039240576194516 L269.0820000000002,0.30678986482013215 L269.3790000000002,0.30319518024515446 L269.6760000000002,0.2996083263653304 L269.9730000000002,0.2960292776208462 L270.2700000000002,0.29245800856296 L270.56700000000023,0.28889449385349053 L270.8640000000002,0.28533870826396424 L271.16100000000023,0.28179062667555854 L271.4580000000002,0.2782502240780218 L271.7550000000002,0.2747174755691617 L272.0520000000002,0.2711923563544474 L272.3490000000002,0.26767484174627043 L272.6460000000002,0.264164907163547 L272.9430000000002,0.26066252813080837 L273.24000000000024,0.2571676802780303 L273.5370000000002,0.2536803393397804 L273.83400000000023,0.25020048115476357 L274.1310000000002,0.24672808166531013 L274.4280000000002,0.24326311691680758 L274.7250000000002,0.23980556305696155 L275.0220000000002,0.23635539633556846 L275.3190000000002,0.232912593103606 L275.6160000000002,0.22947712981306267 L275.91300000000024,0.2260489830161987 L276.2100000000002,0.22262812936497767 L276.50700000000023,0.21921454561066867 L276.8040000000002,0.21580820860316408 L277.1010000000002,0.21240909529063856 L277.3980000000002,0.20901718271886693 L277.6950000000002,0.2056324480307694 L277.9920000000002,0.2022548684660137 L278.2890000000002,0.19888442136021922 L278.58600000000024,0.19552108414484337 L278.8830000000002,0.1921648343461584 L279.18000000000023,0.188815649585365 L279.4770000000002,0.1854735075775693 L279.7740000000002,0.182138386131669 L280.0710000000002,0.17881026314950077 L280.3680000000002,0.17548911662572664 L280.6650000000002,0.1721749246470381 L280.9620000000002,0.16886766539187192 L281.25900000000024,0.1655673171297849 L281.5560000000002,0.16227385822122642 L281.85300000000024,0.15898726711668587 L282.1500000000002,0.1557075223566926 L282.44700000000023,0.1524346025706791 L282.7440000000002,0.14916848647743564 L283.0410000000002,0.14590915288368933 L283.3380000000002,0.14265658068438825 L283.6350000000002,0.13941074886179194 L283.93200000000024,0.13617163648530095 L284.2290000000002,0.13293922271077463 L284.52600000000024,0.1297134867803038 L284.8230000000002,0.1264944080215855 L285.12000000000023,0.12328196584758189 L285.4170000000002,0.12007613975595177 L285.7140000000002,0.11687690932893702 L286.0110000000002,0.11368425423250983 L286.3080000000002,0.11049815421625908 L286.60500000000025,0.10731858911276504 L286.9020000000002,0.1041455388372583 L287.19900000000024,0.10097898338727873 L287.4960000000002,0.09781890284205019 L287.79300000000023,0.09466527736225316 L288.0900000000002,0.09151808718951315 L288.3870000000002,0.08837731264605964 L288.6840000000002,0.08524293413421447 L288.9810000000002,0.08211493213599397 L289.27800000000025,0.07899328721282473 L289.5750000000002,0.07587798000514567 L289.87200000000024,0.07276899123166913 L290.1690000000002,0.0696663016894945 L290.46600000000024,0.0665698922532556 L290.7630000000002,0.06347974387512068 L291.06000000000023,0.06039583758416711 L291.3570000000002,0.057318154485869854 L291.6540000000002,0.054246675762101404 L291.95100000000025,0.051181382670336006 L292.2480000000002,0.048122256543649655 L292.54500000000024,0.04506927879003797 L292.8420000000002,0.04202243089218882 L293.13900000000024,0.03898169440702759 L293.4360000000002,0.03594705096548978 L293.73300000000023,0.0329184822719526 L294.0300000000002,0.029895970104064418 L294.3270000000002,0.0268794963121195 L294.62400000000025,0.02386904281911484 L294.9210000000002,0.02086459161989751 L295.21800000000025,0.017866124781221515 L295.5150000000002,0.014873624440951971 L295.81200000000024,0.01188707280834933 L296.1090000000002,0.00890645216293251 L296.40600000000023,0.005931744854819954 L296.70300000000026,0.002962933303990667 L297.00000000000017,0"/>
        <path fill="none" stroke="#00f" stroke-width="2" stroke-miterlimit="10" d="M0,296 L0.297,295.997037066696 L0.594,295.9940682551452 L0.891,295.99109354783707 L1.188,295.98811292719165 L1.485,295.985126375559 L1.782,295.9821338752188 L2.079,295.97913540838005 L2.376,295.9761309571809 L2.6730000000000005,295.9731205036879 L2.9700000000000006,295.970104029896 L3.267000000000001,295.96708151772805 L3.564000000000001,295.9640529490345 L3.8610000000000015,295.961018305593 L4.158000000000001,295.9579775691078 L4.455000000000002,295.95493072120996 L4.7520000000000024,295.95187774345635 L5.049000000000002,295.94881861732966 L5.346000000000003,295.9457533242379 L5.643000000000003,295.94268184551413 L5.940000000000003,295.93960416241583 L6.237000000000004,295.9365202561248 L6.534000000000003,295.93343010774674 L6.831000000000004,295.9303336983105 L7.1280000000000046,295.92723100876833 L7.425000000000004,295.92412201999485 L7.722000000000005,295.9210067127871 L8.019000000000005,295.917885067864 L8.316000000000006,295.9147570658658 L8.613000000000005,295.91162268735394 L8.910000000000005,295.9084819128105 L9.207000000000006,295.90533472263775 L9.504000000000007,295.90218109715795 L9.801000000000007,295.8990210166127 L10.098000000000006,295.89585446116274 L10.395000000000007,295.89268141088723 L10.692000000000007,295.88950184578374 L10.989000000000008,295.8863157457675 L11.286000000000008,295.88312309067106 L11.583000000000009,295.87992386024405 L11.880000000000008,295.8767180341524 L12.177000000000008,295.8735055919784 L12.474000000000009,295.8702865132197 L12.77100000000001,295.8670607772892 L13.06800000000001,295.8638283635147 L13.365000000000009,295.8605892511382 L13.66200000000001,295.8573434193156 L13.95900000000001,295.8540908471163 L14.25600000000001,295.8508315135226 L14.553000000000011,295.8475653974293 L14.85000000000001,295.84429247764336 L15.147000000000011,295.84101273288326 L15.444000000000011,295.8377261417788 L15.741000000000012,295.8344326828702 L16.03800000000001,295.8311323346081 L16.33500000000001,295.82782507535296 L16.632000000000012,295.8245108833743 L16.929000000000013,295.8211897368505 L17.226000000000013,295.81786161386833 L17.523000000000014,295.8145264924224 L17.820000000000014,295.81118435041463 L18.117000000000015,295.80783516565384 L18.414000000000016,295.8044789158552 L18.711000000000013,295.8011155786398 L19.008000000000013,295.797745131534 L19.305000000000014,295.79436755196923 L19.602000000000015,295.79098281728113 L19.899000000000015,295.78759090470936 L20.196000000000012,295.78419179139684 L20.493000000000013,295.78078545438933 L20.790000000000013,295.777371870635 L21.087000000000014,295.7739510169838 L21.384000000000015,295.77052287018694 L21.681000000000015,295.7670874068964 L21.978000000000016,295.76364460366443 L22.275000000000016,295.76019443694304 L22.572000000000017,295.7567368830832 L22.869000000000018,295.75327191833463 L23.166000000000018,295.74979951884524 L23.463000000000015,295.7463196606602 L23.760000000000016,295.74283231972197 L24.057000000000016,295.7393374718692 L24.354000000000017,295.73583509283645 L24.651000000000018,295.73232515825373 L24.948000000000018,295.72880764364555 L25.24500000000002,295.72528252443084 L25.54200000000002,295.721749775922 L25.83900000000002,295.71820937332444 L26.13600000000002,295.71466129173604 L26.433000000000018,295.71110550614657 L26.730000000000018,295.70754199143704 L27.02700000000002,295.70397072237915 L27.32400000000002,295.70039167363467 L27.62100000000002,295.69680481975485 L27.91800000000002,295.6932101351798 L28.21500000000002,295.6896075942381 L28.51200000000002,295.6859971711457 L28.809000000000022,295.68237884000575 L29.106000000000023,295.67875257480785 L29.403000000000024,295.67511834942735 L29.70000000000002,295.67147613762484 L29.99700000000002,295.6678259130454 L30.294000000000022,295.66416764921803 L30.591000000000022,295.660501319555 L30.888000000000023,295.65682689735127 L31.185000000000024,295.6531443557837 L31.482000000000024,295.6494536679105 L31.779000000000025,295.6457548066706 L32.07600000000002,295.64204774488286 L32.373000000000026,295.6383324552456 L32.67000000000002,295.63460891033554 L32.96700000000003,295.63087708260775 L33.264000000000024,295.62713694439446 L33.56100000000003,295.6233884679045 L33.858000000000025,295.6196316252226 L34.15500000000003,295.615866388309 L34.45200000000003,295.61209272899816 L34.749000000000024,295.6083106189986 L35.04600000000003,295.604520029892 L35.343000000000025,295.6007209331323 L35.64000000000003,295.5969133000454 L35.937000000000026,295.593097101828 L36.23400000000003,295.5892723095471 L36.53100000000003,295.5854388941394 L36.82800000000003,295.5815968264101 L37.12500000000002,295.5777460770328 L37.422000000000025,295.57388661654824 L37.71900000000002,295.5700184153637 L38.01600000000003,295.5661414437523 L38.313000000000024,295.56225567185226 L38.61000000000003,295.55836106966603 L38.907000000000025,295.55445760705953 L39.20400000000003,295.5505452537616 L39.501000000000026,295.54662397936266 L39.79800000000003,295.5426937533147 L40.09500000000003,295.5387545449299 L40.392000000000024,295.5348063233799 L40.68900000000003,295.5308490576952 L40.986000000000026,295.52688271676436 L41.28300000000003,295.5229072693329 L41.58000000000003,295.5189226840028 L41.87700000000003,295.5149289292314 L42.17400000000003,295.51092597333087 L42.47100000000003,295.506913784467 L42.76800000000003,295.5028923306587 L43.06500000000003,295.498861579777 L43.36200000000003,295.4948214995441 L43.65900000000003,295.49077205753275 L43.95600000000003,295.48671322116513 L44.25300000000003,295.4826449577121 L44.55000000000003,295.4785672342924 L44.84700000000003,295.47448001787166 L45.144000000000034,295.4703832752613 L45.44100000000003,295.4662769731182 L45.738000000000035,295.4621610779432 L46.03500000000003,295.4580355560806 L46.332000000000036,295.4539003737168 L46.62900000000003,295.4497554968801 L46.92600000000003,295.44560089143886 L47.223000000000035,295.4414365231014 L47.52000000000003,295.43726235741445 L47.817000000000036,295.43307835976253 L48.11400000000003,295.42888449536696 L48.41100000000004,295.42468072928466 L48.708000000000034,295.42046702640755 L49.00500000000004,295.41624335146116 L49.302000000000035,295.41200966900414 L49.59900000000004,295.40776594342674 L49.896000000000036,295.4035121389502 L50.19300000000003,295.3992482196256 L50.49000000000004,295.3949741493327 L50.787000000000035,295.39068989177935 L51.08400000000004,295.3863954104999 L51.381000000000036,295.38209066885474 L51.67800000000004,295.37777563002874 L51.97500000000004,295.3734502570305 L52.27200000000004,295.36911451269134 L52.56900000000004,295.3647683596639 L52.866000000000035,295.36041176042147 L53.16300000000004,295.35604467725665 L53.460000000000036,295.35166707228035 L53.75700000000004,295.34727890742073 L54.05400000000004,295.34288014442194 L54.35100000000004,295.3384707448433 L54.64800000000004,295.3340506700577 L54.94500000000004,295.3296198812511 L55.24200000000004,295.325178339421 L55.539000000000044,295.3207260053751 L55.83600000000004,295.31626283973065 L56.13300000000004,295.31178880291304 L56.43000000000004,295.3073038551546 L56.72700000000004,295.3028079564933 L57.02400000000004,295.298301066772 L57.32100000000004,295.29378314563684 L57.618000000000045,295.2892541525361 L57.91500000000004,295.2847140467191 L58.212000000000046,295.2801627872351 L58.50900000000004,295.2756003329317 L58.80600000000005,295.2710266424538 L59.103000000000044,295.2664416742425 L59.40000000000004,295.26184538653365 L59.697000000000045,295.2572377373566 L59.99400000000004,295.2526186845329 L60.29100000000005,295.2479881856751 L60.588000000000044,295.2433461981856 L60.88500000000005,295.23869267925477 L61.182000000000045,295.23402758586036 L61.47900000000005,295.22935087476577 L61.776000000000046,295.22466250251864 L62.07300000000005,295.2199624254498 L62.37000000000005,295.2152505996718 L62.667000000000044,295.21052698107724 L62.96400000000005,295.20579152533793 L63.261000000000045,295.2010441879031 L63.55800000000005,295.1962849239983 L63.85500000000005,295.1915136886235 L64.15200000000004,295.18673043655235 L64.44900000000005,295.1819351223302 L64.74600000000005,295.1771277002729 L65.04300000000005,295.1723081244653 L65.34000000000005,295.1674763487599 L65.63700000000004,295.1626323267751 L65.93400000000005,295.1577760118941 L66.23100000000005,295.15290735726296 L66.52800000000005,295.1480263157895 L66.82500000000005,295.1431328401415 L67.12200000000006,295.13822688274547 L67.41900000000005,295.1333083957847 L67.71600000000005,295.128377331198 L68.01300000000005,295.1234336406781 L68.31000000000006,295.1184772756701 L68.60700000000006,295.1135081873695 L68.90400000000005,295.10852632672135 L69.20100000000005,295.10353164441784 L69.49800000000005,295.0985240908973 L69.79500000000006,295.09350361634193 L70.09200000000006,295.08847017067694 L70.38900000000005,295.0834237035682 L70.68600000000005,295.07836416442086 L70.98300000000006,295.0732915023776 L71.28000000000006,295.0682056663169 L71.57700000000006,295.0631066048515 L71.87400000000005,295.0579942663265 L72.17100000000005,295.05286859881755 L72.46800000000006,295.0477295501292 L72.76500000000006,295.0425770677933 L73.06200000000005,295.03741109906673 L73.35900000000005,295.03223159093017 L73.65600000000006,295.0270384900859 L73.95300000000006,295.0218317429561 L74.25000000000004,295.01661129568106 L74.54700000000005,295.01137709411717 L74.84400000000005,295.0061290838352 L75.14100000000005,295.0008672101183 L75.43800000000005,294.99559141796027 L75.73500000000006,294.9903016520634 L76.03200000000005,294.9849978568367 L76.32900000000005,294.9796799763939 L76.62600000000005,294.97434795455155 L76.92300000000006,294.969001734827 L77.22000000000006,294.9636412604363 L77.51700000000005,294.95826647429243 L77.81400000000005,294.952877319003 L78.11100000000005,294.94747373686846 L78.40800000000006,294.9420556698798 L78.70500000000006,294.9366230597167 L79.00200000000005,294.93117584774524 L79.29900000000005,294.925713975016 L79.59600000000006,294.9202373822617 L79.89300000000006,294.91474600989517 L80.19000000000005,294.9092397980074 L80.48700000000005,294.9037186863648 L80.78400000000005,294.8981826144077 L81.08100000000006,294.8926315212476 L81.37800000000006,294.8870653456651 L81.67500000000005,294.88148402610784 L81.97200000000005,294.875887500688 L82.26900000000006,294.87027570718 L82.56600000000006,294.8646485830183 L82.86300000000006,294.8590060652952 L83.16000000000005,294.8533480907582 L83.45700000000006,294.84767459580775 L83.75400000000006,294.84198551649513 L84.05100000000006,294.8362807885195 L84.34800000000006,294.8305603472261 L84.64500000000005,294.8248241276033 L84.94200000000006,294.8190720642803 L85.23900000000006,294.81330409152497 L85.53600000000006,294.8075201432408 L85.83300000000006,294.8017201529647 L86.13000000000007,294.7959040538645 L86.42700000000006,294.7900717787361 L86.72400000000006,294.7842232600011 L87.02100000000006,294.7783584297043 L87.31800000000005,294.7724772195108 L87.61500000000007,294.76657956070346 L87.91200000000006,294.76066538418013 L88.20900000000006,294.7547346204513 L88.50600000000006,294.74878719963687 L88.80300000000007,294.7428230514638 L89.10000000000007,294.7368421052632 L89.39700000000006,294.73084428996737 L89.69400000000006,294.7248295341074 L89.99100000000006,294.71879776581005 L90.28800000000007,294.71274891279467 L90.58500000000006,294.7066829023709 L90.88200000000006,294.70059966143515 L91.17900000000006,294.6944991164682 L91.47600000000007,294.68838119353165 L91.77300000000007,294.68224581826564 L92.07000000000006,294.67609291588514 L92.36700000000006,294.6699224111774 L92.66400000000007,294.66373422849864 L92.96100000000007,294.6575282917711 L93.25800000000007,294.65130452447977 L93.55500000000006,294.6450628496694 L93.85200000000006,294.6388031899412 L94.14900000000007,294.63252546744974 L94.44600000000007,294.62622960389973 L94.74300000000007,294.6199155205425 L95.04000000000006,294.6135831381733 L95.33700000000007,294.6072323771273 L95.63400000000007,294.60086315727665 L95.93100000000007,294.59447539802716 L96.22800000000007,294.58806901831457 L96.52500000000006,294.58164393660155 L96.82200000000007,294.5752000708738 L97.11900000000007,294.56873733863694 L97.41600000000007,294.56225565691267 L97.71300000000006,294.5557549422355 L98.01000000000008,294.549235110649 L98.30700000000007,294.54269607770226 L98.60400000000007,294.53613775844605 L98.90100000000007,294.5295600674295 L99.19800000000008,294.522962918696 L99.49500000000008,294.5163462257799 L99.79200000000007,294.50970990170225 L100.08900000000007,294.50305385896723 L100.38600000000007,294.49637800955844 L100.68300000000008,294.48968226493474 L100.98000000000008,294.48296653602654 L101.27700000000007,294.47623073323166 L101.57400000000007,294.4694747664117 L101.87100000000008,294.4626985448874 L102.16800000000008,294.4559019774354 L102.46500000000007,294.4490849722834 L102.76200000000007,294.44224743710646 L103.05900000000007,294.4353892790227 L103.35600000000008,294.428510404589 L103.65300000000008,294.4216107197971 L103.95000000000007,294.41469013006883 L104.24700000000007,294.40774854025227 L104.54400000000008,294.4007858546169 L104.84100000000008,294.39380197684966 L105.13800000000008,294.3867968100502 L105.43500000000007,294.37977025672654 L105.73200000000007,294.37272221879056 L106.02900000000008,294.36565259755326 L106.32600000000008,294.35856129372036 L106.62300000000008,294.35144820738765 L106.92000000000007,294.344313238036 L107.21700000000008,294.33715628452717 L107.51400000000008,294.32997724509835 L107.81100000000008,294.3227760173579 L108.10800000000008,294.3155524982803 L108.40500000000009,294.30830658420103 L108.70200000000008,294.30103817081203 L108.99900000000008,294.2937471531563 L109.29600000000008,294.28643342562293 L109.59300000000007,294.27909688194234 L109.89000000000009,294.27173741518067 L110.18700000000008,294.2643549177348 L110.48400000000008,294.2569492813272 L110.78100000000008,294.2495203970003 L111.07800000000009,294.2420681551116 L111.37500000000009,294.234592445328 L111.67200000000008,294.22709315662036 L111.96900000000008,294.219570177258 L112.26600000000008,294.2120233948033 L112.56300000000009,294.2044526961059 L112.86000000000008,294.1968579672972 L113.15700000000008,294.18923909378464 L113.45400000000008,294.1815959602457 L113.75100000000009,294.17392845062255 L114.04800000000009,294.1662364481156 L114.34500000000008,294.15851983517814 L114.64200000000008,294.15077849350985 L114.93900000000009,294.14301230405107 L115.23600000000009,294.1352211469767 L115.53300000000009,294.1274049016897 L115.83000000000008,294.11956344681545 L116.12700000000008,294.1116966601948 L116.42400000000009,294.10380441887827 L116.72100000000009,294.09588659911935 L117.01800000000009,294.08794307636816 L117.31500000000008,294.0799737252648 L117.6120000000001,294.07197841963284 L117.90900000000009,294.0639570324728 L118.20600000000009,294.05590943595496 L118.50300000000009,294.04783550141326 L118.80000000000008,294.03973509933775 L119.0970000000001,294.03160809936816 L119.39400000000009,294.0234543702867 L119.69100000000009,294.015273780011 L119.98800000000008,294.00706619558696 L120.2850000000001,293.9988314831817 L120.5820000000001,293.99056950807613 L120.87900000000009,293.9822801346576 L121.17600000000009,293.97396322641254 L121.4730000000001,293.9656186459191 L121.7700000000001,293.9572462548393 L122.06700000000009,293.94884591391144 L122.36400000000009,293.9404174829426 L122.66100000000009,293.93196082080084 L122.9580000000001,293.9234757854068 L123.2550000000001,293.91496223372656 L123.55200000000009,293.90642002176276 L123.84900000000009,293.89784900454725 L124.1460000000001,293.88924903613224 L124.4430000000001,293.88061996958254 L124.7400000000001,293.8719616569668 L125.03700000000009,293.86327394934926 L125.33400000000009,293.8545566967813 L125.6310000000001,293.8458097482924 L125.9280000000001,293.83703295188195 L126.2250000000001,293.82822615451016 L126.52200000000009,293.81938920208904 L126.8190000000001,293.81052193947374 L127.1160000000001,293.80162421045327 L127.4130000000001,293.7926958577413 L127.7100000000001,293.7837367229671 L128.0070000000001,293.77474664666585 L128.3040000000001,293.7657254682695 L128.60100000000008,293.756673026097 L128.8980000000001,293.74758915734475 L129.1950000000001,293.73847369807675 L129.4920000000001,293.72932648321483 L129.7890000000001,293.72014734652873 L130.0860000000001,293.7109361206257 L130.3830000000001,293.7016926369409 L130.6800000000001,293.69241672572645 L130.9770000000001,293.6831082160416 L131.2740000000001,293.673766935742 L131.5710000000001,293.6643927114689 L131.8680000000001,293.6549853686389 L132.1650000000001,293.64554473143266 L132.4620000000001,293.6360706227841 L132.7590000000001,293.62656286436936 L133.0560000000001,293.6170212765957 L133.3530000000001,293.60744567859007 L133.6500000000001,293.59783588818755 L133.94700000000012,293.5881917219201 L134.2440000000001,293.5785129950047 L134.5410000000001,293.5687995213316 L134.8380000000001,293.55905111345226 L135.1350000000001,293.54926758256755 L135.4320000000001,293.5394487385154 L135.7290000000001,293.52959438975836 L136.0260000000001,293.51970434337153 L136.3230000000001,293.5097784050294 L136.62000000000012,293.4998163789937 L136.91700000000012,293.4898180681003 L137.2140000000001,293.4797832737459 L137.5110000000001,293.4697117958754 L137.8080000000001,293.4596034329683 L138.1050000000001,293.44945798202536 L138.4020000000001,293.43927523855496 L138.6990000000001,293.4290549965592 L138.9960000000001,293.4187970485205 L139.29300000000012,293.4085011853871 L139.59000000000012,293.3981671965588 L139.8870000000001,293.3877948698732 L140.1840000000001,293.3773839915903 L140.4810000000001,293.3669343463788 L140.7780000000001,293.35644571730035 L141.0750000000001,293.3459178857952 L141.3720000000001,293.33535063166653 L141.6690000000001,293.32474373306553 L141.96600000000012,293.3140969664756 L142.26300000000012,293.30341010669656 L142.56000000000012,293.2926829268293 L142.8570000000001,293.2819151982589 L143.1540000000001,293.2711066906392 L143.4510000000001,293.2602571718759 L143.7480000000001,293.24936640810995 L144.0450000000001,293.2384341637011 L144.3420000000001,293.22746020121036 L144.63900000000012,293.21644428138336 L144.93600000000012,293.20538616313263 L145.23300000000012,293.19428560352014 L145.53000000000011,293.18314235773937 L145.8270000000001,293.1719561790975 L146.1240000000001,293.1607268189971 L146.4210000000001,293.14945402691774 L146.7180000000001,293.1381375503973 L147.0150000000001,293.12677713501324 L147.31200000000013,293.1153725243634 L147.60900000000012,293.1039234600469 L147.90600000000012,293.09242968164426 L148.20300000000012,293.08089092669815 L148.50000000000009,293.0693069306931 L148.7970000000001,293.0576774270352 L149.0940000000001,293.0460021470319 L149.3910000000001,293.0342808198713 L149.6880000000001,293.022513172601 L149.9850000000001,293.01069893010697 L150.2820000000001,292.9988378150924 L150.5790000000001,292.9869295480555 L150.8760000000001,292.974973847268 L151.17300000000012,292.96297042875284 L151.4700000000001,292.95091900626136 L151.7670000000001,292.9388192912509 L152.0640000000001,292.9266709928618 L152.3610000000001,292.9144738178936 L152.6580000000001,292.90222747078224 L152.9550000000001,292.88993165357545 L153.2520000000001,292.8775860659089 L153.5490000000001,292.8651904049819 L153.84600000000012,292.85274436553226 L154.14300000000011,292.8402476398116 L154.4400000000001,292.82769991755976 L154.7370000000001,292.81510088597923 L155.0340000000001,292.80245022970905 L155.3310000000001,292.78974763079856 L155.6280000000001,292.7769927686809 L155.9250000000001,292.76418532014577 L156.2220000000001,292.7513249593123 L156.51900000000012,292.73841135760136 L156.81600000000012,292.7254441837077 L157.1130000000001,292.7124231035713 L157.4100000000001,292.6993477803492 L157.7070000000001,292.68621787438593 L158.0040000000001,292.6730330431843 L158.3010000000001,292.6597929413757 L158.5980000000001,292.6464972206899 L158.8950000000001,292.6331455299245 L159.19200000000012,292.61973751491394 L159.48900000000012,292.6062728184982 L159.78600000000012,292.59275108049127 L160.0830000000001,292.57917193764877 L160.3800000000001,292.56553502363556 L160.6770000000001,292.5518399689929 L160.9740000000001,292.5380864011048 L161.2710000000001,292.5242739441645 L161.5680000000001,292.5104022191401 L161.86500000000012,292.4964708437398 L162.16200000000012,292.48247943237715 L162.45900000000012,292.468427596135 L162.7560000000001,292.45431494272975 L163.0530000000001,292.44014107647484 L163.3500000000001,292.4259055982437 L163.6470000000001,292.4116081054322 L163.9440000000001,292.397248191921 L164.2410000000001,292.3828254480366 L164.53800000000012,292.3683394605129 L164.83500000000012,292.35378981245145 L165.13200000000012,292.3391760832814 L165.42900000000012,292.32449784871926 L165.7260000000001,292.30975468072745 L166.0230000000001,292.29494614747307 L166.3200000000001,292.2800718132855 L166.6170000000001,292.2651312386136 L166.91400000000013,292.25012397998285 L167.21100000000013,292.23504958995096 L167.50800000000012,292.21990761706365 L167.80500000000012,292.2046976058096 L168.10200000000012,292.1894190965746 L168.39900000000011,292.17407162559556 L168.6960000000001,292.15865472491316 L168.9930000000001,292.1431679223248 L169.2900000000001,292.1276107413358 L169.58700000000013,292.11198270111106 L169.88400000000013,292.09628331642534 L170.18100000000013,292.0805120976128 L170.47800000000012,292.0646685505165 L170.77500000000012,292.04875217643644 L171.07200000000012,292.0327624720774 L171.3690000000001,292.016698929496 L171.6660000000001,292.0005610360466 L171.9630000000001,291.9843482743269 L172.26000000000013,291.96806012212306 L172.55700000000013,291.9516960523528 L172.85400000000013,291.9352555330093 L173.15100000000012,291.9187380271031 L173.44800000000012,291.90214299260384 L173.74500000000012,291.8854698823809 L174.04200000000012,291.86871814414326 L174.3390000000001,291.8518872203786 L174.6360000000001,291.83497654829137 L174.93300000000013,291.81798555973995 L175.23000000000013,291.80091368117337 L175.52700000000013,291.7837603335663 L175.82400000000013,291.76652493235406 L176.12100000000012,291.7492068873659 L176.41800000000012,291.7318056027577 L176.71500000000012,291.71432047694367 L177.0120000000001,291.69675090252707 L177.3090000000001,291.6790962662298 L177.60600000000014,291.66135594882104 L177.90300000000013,291.6435293250448 L178.20000000000013,291.6256157635468 L178.49700000000013,291.6076146267993 L178.79400000000012,291.58952527102616 L179.09100000000012,291.5713470461256 L179.38800000000012,291.55307929559245 L179.68500000000012,291.5347213564393 L179.9820000000001,291.51627255911615 L180.27900000000014,291.49773222742874 L180.57600000000014,291.4790996784566 L180.87300000000013,291.46037422246843 L181.17000000000013,291.4415551628377 L181.46700000000013,291.42264179595554 L181.76400000000012,291.4036334111438 L182.06100000000012,291.38452929056547 L182.35800000000012,291.3653287091345 L182.65500000000014,291.3460309344241 L182.95200000000014,291.3266352265737 L183.24900000000014,291.3071408381941 L183.54600000000013,291.2875470142717 L183.84300000000013,291.2678529920711 L184.14000000000013,291.2480580010357 L184.43700000000013,291.2281612626879 L184.73400000000012,291.20816199052626 L185.03100000000012,291.1880593899225 L185.32800000000015,291.1678526580159 L185.62500000000014,291.1475409836066 L185.92200000000014,291.1271235470467 L186.21900000000014,291.10659952013077 L186.51600000000013,291.08596806598285 L186.81300000000013,291.0652283389435 L187.11000000000013,291.0443794844539 L187.40700000000012,291.0234206389385 L187.70400000000012,291.0023509296858 L188.00100000000015,290.98116947472744 L188.29800000000014,290.9598753827147 L188.59500000000014,290.9384677527938 L188.89200000000014,290.9169456744789 L189.18900000000014,290.89530822752255 L189.48600000000013,290.8735544817851 L189.78300000000013,290.85168349710113 L190.08000000000013,290.8296943231441 L190.37700000000012,290.80758599928845 L190.67400000000015,290.7853575544701 L190.97100000000015,290.763008007044 L191.26800000000014,290.74053636463964 L191.56500000000014,290.7179416240144 L191.86200000000014,290.69522277090385 L192.15900000000013,290.67237877987037 L192.45600000000013,290.6494086141486 L192.75300000000013,290.6263112254888 L193.05000000000013,290.6030855539972 L193.34700000000015,290.5797305279739 L193.64400000000015,290.5562450637482 L193.94100000000014,290.5326280655107 L194.23800000000014,290.5088784251432 L194.53500000000014,290.4849950220452 L194.83200000000014,290.4609767229575 L195.12900000000013,290.4368223817833 L195.42600000000013,290.4125308394056 L195.72300000000013,290.38810092350184 L196.02000000000015,290.36353144835545 L196.31700000000015,290.33882121466394 L196.61400000000015,290.3139690093436 L196.91100000000014,290.2889736053313 L197.20800000000014,290.2638337613822 L197.50500000000014,290.23854822186445 L197.80200000000013,290.2131157165502 L198.09900000000013,290.18753496040273 L198.39600000000016,290.1618046533601 L198.69300000000015,290.1359234801149 L198.99000000000015,290.1098901098901 L199.28700000000015,290.083703196211 L199.58400000000015,290.05736137667304 L199.88100000000014,290.03086327270546 L200.17800000000014,290.004207489331 L200.47500000000014,289.97739261492086 L200.77200000000013,289.95041722094567 L201.06900000000016,289.92327986172177 L201.36600000000016,289.89597907415293 L201.66300000000015,289.86851337746725 L201.96000000000015,289.8408812729498 L202.25700000000015,289.8130812436696 L202.55400000000014,289.7851117542023 L202.85100000000014,289.7569712503474 L203.14800000000014,289.7286581588403 L203.44500000000014,289.7001708870592 L203.74200000000016,289.6715078227264 L204.03900000000016,289.64266733360427 L204.33600000000015,289.6136477671851 L204.63300000000015,289.5844474503759 L204.93000000000015,289.5550646891764 L205.22700000000015,289.5254977683517 L205.52400000000014,289.4957449510987 L205.82100000000014,289.4658044787054 L206.11800000000014,289.43567457020515 L206.41500000000016,289.40535342202276 L206.71200000000016,289.37483920761514 L207.00900000000016,289.34413007710424 L207.30600000000015,289.31322415690335 L207.60300000000015,289.282119549336 L207.90000000000015,289.25081433224756 L208.19700000000014,289.21930655860916 L208.49400000000014,289.1875942561143 L208.79100000000014,289.15567542676706 L209.08800000000016,289.1235480464625 L209.38500000000016,289.0912100645588 L209.68200000000016,289.05865940344114 L209.97900000000016,289.02589395807644 L210.27600000000015,288.9929115955597 L210.57300000000015,288.95971015465125 L210.87000000000015,288.9262874453046 L211.16700000000014,288.89264124818476 L211.46400000000014,288.85876931417727 L211.76100000000017,288.8246693638867 L212.05800000000016,288.7903390871256 L212.35500000000016,288.75577614239256 L212.65200000000016,288.72097815634015 L212.94900000000015,288.68594272323116 L213.24600000000015,288.6506674043848 L213.54300000000015,288.61514972761023 L213.84000000000015,288.5793871866295 L214.13700000000017,288.54337724048776 L214.43400000000017,288.5071173129514 L214.73100000000017,288.4706047918939 L215.02800000000016,288.4338370286682 L215.32500000000016,288.3968113374668 L215.62200000000016,288.35952499466686 L215.91900000000015,288.3219752381632 L216.21600000000015,288.2841592666857 L216.51300000000015,288.24607423910305 L216.81000000000017,288.2077172737108 L217.10700000000017,288.1690854475046 L217.40400000000017,288.130175795438 L217.70100000000016,288.0909853096635 L217.99800000000016,288.0515109387576 L218.29500000000016,288.01174958692854 L218.59200000000016,287.97169811320754 L218.88900000000015,287.931353330621 L219.18600000000015,287.89071200534556 L219.48300000000017,287.8497708558441 L219.78000000000017,287.808526551982 L220.07700000000017,287.76697571412484 L220.37400000000017,287.72511491221456 L220.67100000000016,287.6829406648262 L220.96800000000016,287.6404494382022 L221.26500000000016,287.59763764526576 L221.56200000000015,287.554501644611 L221.85900000000015,287.5110377394709 L222.15600000000018,287.467242176661 L222.45300000000017,287.4231111454988 L222.75000000000017,287.378640776699 L223.04700000000017,287.333827141242 L223.34400000000016,287.2886662492173 L223.64100000000016,287.24315404863864 L223.93800000000016,287.19728642423286 L224.23500000000016,287.15105919619873 L224.53200000000015,287.1044681189378 L224.82900000000018,287.05750887975415 L225.12600000000018,287.0101770975238 L225.42300000000017,286.96246832133227 L225.72000000000017,286.9143780290791 L226.01700000000017,286.8659016260492 L226.31400000000016,286.8170344434492 L226.61100000000016,286.7677717369088 L226.90800000000016,286.718108684945 L227.20500000000015,286.6680403873892 L227.50200000000018,286.6175618637755 L227.79900000000018,286.566668051689 L228.09600000000017,286.5153538050734 L228.39300000000017,286.46361389249654 L228.69000000000017,286.4114429953723 L228.98700000000017,286.3588357061383 L229.28400000000016,286.30578652638724 L229.58100000000016,286.2522898649512 L229.87800000000018,286.19834003593735 L230.17500000000018,286.1439312567132 L230.47200000000018,286.0890576458405 L230.76900000000018,286.0337132209559 L231.06600000000017,285.9778918965967 L231.36300000000017,285.92158748197033 L231.66000000000017,285.8647936786655 L231.95700000000016,285.8075040783034 L232.25400000000016,285.7497121601275 L232.5510000000002,285.6914112885291 L232.84800000000018,285.6325947105075 L233.14500000000018,285.57325555306255 L233.44200000000018,285.5133868205174 L233.73900000000017,285.4529813917689 L234.03600000000017,285.39203201746403 L234.33300000000017,285.3305313170999 L234.63000000000017,285.268471776044 L234.92700000000016,285.2058457424738 L235.2240000000002,285.14264542423115 L235.52100000000019,285.07886288559064 L235.81800000000018,285.01449004393754 L236.11500000000018,284.9495186663536 L236.41200000000018,284.8839403661068 L236.70900000000017,284.8177465990425 L237.00600000000017,284.75092865987233 L237.30300000000017,284.6834776783578 L237.60000000000016,284.6153846153846 L237.8970000000002,284.54664025892464 L238.1940000000002,284.47723521988155 L238.49100000000018,284.4071599278154 L238.78800000000018,284.33640462654375 L239.08500000000018,284.26495936961334 L239.38200000000018,284.1928140156389 L239.67900000000017,284.1199582235042 L239.97600000000017,284.04638144742097 L240.27300000000017,283.9720729318398 L240.5700000000002,283.89702170620893 L240.8670000000002,283.8212165795748 L241.1640000000002,283.7446461350193 L241.46100000000018,283.6672987239276 L241.75800000000018,283.58916246008033 L242.05500000000018,283.5102252135645 L242.35200000000017,283.4304746044962 L242.64900000000017,283.3498979965475 L242.9460000000002,283.26848249027233 L243.2430000000002,283.18621491622173 L243.5400000000002,283.1030818278427 L243.8370000000002,283.0190694941509 L244.13400000000019,282.9341638921705 L244.43100000000018,282.8483506991308 L244.72800000000018,282.76161528441156 L245.02500000000018,282.67394270122776 L245.32200000000017,282.5853176780423 L245.6190000000002,282.4957246096982 L245.9160000000002,282.4051475482582 L246.2130000000002,282.3135701935411 L246.5100000000002,282.22097588334265 L246.8070000000002,282.12734758332857 L247.10400000000018,282.03266787658794 L247.40100000000018,281.9369189528317 L247.69800000000018,281.8400825972237 L247.99500000000018,281.7421401788289 L248.2920000000002,281.6430726386632 L248.5890000000002,281.54286047732967 L248.8860000000002,281.4414837422232 L249.1830000000002,281.3389220142865 L249.4800000000002,281.23515439429923 L249.77700000000019,281.1301594886804 L250.07400000000018,281.02391539478424 L250.37100000000018,280.91639968566756 L250.66800000000018,280.8075893943079 L250.9650000000002,280.69746099724676 L251.2620000000002,280.5859903976363 L251.5590000000002,280.4731529076608 L251.8560000000002,280.358923230309 L252.1530000000002,280.2432754404664 L252.4500000000002,280.1261829652996 L252.74700000000018,280.0076185639006 L253.04400000000018,279.8875543061589 L253.34100000000018,279.76596155082615 L253.6380000000002,279.64281092273836 L253.9350000000002,279.5180722891565 L254.2320000000002,279.3917147351861 L254.5290000000002,279.26370653823307 L254.8260000000002,279.13401514145295 L255.1230000000002,279.0026071261447 L255.4200000000002,278.86944818304164 L255.71700000000018,278.7345030824469 L256.0140000000002,278.5977356431591 L256.3110000000002,278.4591087001304 L256.6080000000002,278.31858407079636 L256.9050000000002,278.17612252001385 L257.20200000000017,278.0316837235384 L257.4990000000002,277.88522622997095 L257.7960000000002,277.73670742109744 L258.0930000000002,277.58608347054184 L258.3900000000002,277.4333093006488 L258.6870000000002,277.2783385375063 L258.9840000000002,277.1211234640139 L259.2810000000002,276.961614970898 L259.5780000000002,276.79976250556615 L259.87500000000017,276.6355140186915 L260.1720000000002,276.46881590840604 L260.4690000000002,276.2996129619791 L260.7660000000002,276.1278482948462 L261.0630000000002,275.95346328684786 L261.3600000000002,275.77639751552783 L261.6570000000002,275.59658868633113 L261.9540000000002,275.4139725595331 L262.2510000000002,275.2284828737184 L262.5480000000002,275.04005126561987 L262.8450000000002,274.8486071861121 L263.1420000000002,274.6540778121438 L263.4390000000002,274.4563879543775 L263.7360000000002,274.25545996029103 L264.0330000000002,274.05121361247797 L264.3300000000002,273.843566021867 L264.6270000000002,273.6324315155626 L264.9240000000002,273.4177215189872 L265.22100000000023,273.1993444319847 L265.5180000000002,272.9772054985208 L265.8150000000002,272.75120666959174 L266.1120000000002,272.5212464589234 L266.4090000000002,272.2872197910153 L266.7060000000002,272.04901784105226 L267.0030000000002,271.80652786616946 L267.3000000000002,271.55963302752275 L267.5970000000002,271.30821220257366 L267.89400000000023,271.05213978695554 L268.1910000000002,270.7912854852398 L268.4880000000002,270.52551408987034 L268.7850000000002,270.25468524747697 L269.0820000000002,269.9786532117211 L269.3790000000002,269.6972665817574 L269.6760000000002,269.41036802532625 L269.9730000000002,269.1177939854129 L270.2700000000002,268.8193743693237 L270.56700000000023,268.5149322189377 L270.8640000000002,268.20428336079055 L271.16100000000023,267.88723603453633 L271.4580000000002,267.56359049821293 L271.7550000000002,267.23313860860304 L272.0520000000002,266.89566337483876 L272.3490000000002,266.55093848323725 L272.6460000000002,266.198727791182 L272.9430000000002,265.8387847876702 L273.24000000000024,265.470852017937 L273.5370000000002,265.09466046933426 L273.83400000000023,264.7099289153861 L274.1310000000002,264.31636321465817 L274.4280000000002,263.9136555607693 L274.7250000000002,263.50148367952494 L275.0220000000002,263.0795099687722 L275.3190000000002,262.64738057615136 L275.6160000000002,262.2047244094485 L275.91300000000024,261.7511520737324 L276.2100000000002,261.28625472887734 L276.50700000000023,260.80960286042614 L276.8040000000002,260.32074495602654 L277.1010000000002,259.8192060788677 L277.3980000000002,259.3044863286431 L277.6950000000002,258.7760591795558 L277.9920000000002,258.233369683751 L278.2890000000002,257.6758325272899 L278.58600000000024,257.10282992434816 L278.8830000000002,256.51370933371174 L279.18000000000023,255.90778097982664 L279.4770000000002,255.28431515860208 L279.7740000000002,254.6425393058435 L280.0710000000002,253.98163480355214 L280.3680000000002,253.30073349633201 L280.6650000000002,252.59891388673338 L280.9620000000002,251.87519697447158 L281.25900000000024,251.12854170001546 L281.5560000000002,250.35783994794997 L281.85300000000024,249.5619110596787 L282.1500000000002,248.73949579831873 L282.44700000000023,247.8892497009052 L282.7440000000002,247.00973574408835 L283.0410000000002,246.09941623916436 L283.3380000000002,245.15664386028016 L283.6350000000002,244.1796516956913 L283.93200000000024,243.16654219566766 L284.2290000000002,242.11527487159896 L284.52600000000024,241.02365257851798 L284.8230000000002,239.88930618699263 L285.12000000000023,238.70967741935397 L285.4170000000002,237.4819995885611 L285.7140000000002,236.20327593448033 L286.0110000000002,234.87025520051367 L286.3080000000002,233.47940403155022 L286.60500000000025,232.02687569988692 L286.9020000000002,230.50847457627003 L287.19900000000024,228.91961565502572 L287.4960000000002,227.25527831093922 L287.79300000000023,225.50995330547914 L288.0900000000002,223.67758186397845 L288.3870000000002,221.75148540428683 L288.6840000000002,219.72428419936216 L288.9810000000002,217.58780288592266 L289.27800000000025,215.33296026860486 L289.5750000000002,212.94964028776792 L289.87200000000024,210.42654028435823 L290.1690000000002,207.7509917607547 L290.46600000000024,204.90874764002297 L290.7630000000002,201.88372848327143 L291.06000000000023,198.65771812080283 L291.3570000000002,195.2099965289803 L291.6540000000002,191.51689432062972 L291.95100000000025,187.5512486023077 L292.2480000000002,183.28173374612666 L292.54500000000024,178.67203219315527 L292.8420000000002,173.67979882648388 L293.13900000000024,168.25535636204202 L293.4360000000002,162.34003656306655 L293.73300000000023,155.86404978458074 L294.0300000000002,148.74371859295908 L294.3270000000002,140.87784241141614 L294.62400000000025,132.14285714285003 L294.9210000000002,122.38629651505406 L295.21800000000025,111.41781681303993 L295.5150000000002,98.99665551838439 L295.81200000000024,84.81375358165016 L296.1090000000002,68.46569005395708 L296.40600000000023,49.415692821352934 L296.70300000000026,26.933575978142926 L297.00000000000017,-1.972466634470038e-11"/>
    </g>
</svg>

