<?xml version="1.0" encoding="utf-8"?>
<!-- Generator: Adobe Illustrator 18.1.0, SVG Export Plug-In . SVG Version: 6.00 Build 0)  -->
<svg version="1.1" id="Layer_1" xmlns="http://www.w3.org/2000/svg" xmlns:xlink="http://www.w3.org/1999/xlink" x="0px" y="0px"
	 viewBox="0 0 403 404" enable-background="new 0 0 403 404" xml:space="preserve">
<path fill="#FFFFFF" stroke="#000000" stroke-miterlimit="10" d="M363.5,389.7H39.2c-14.6,0-26.5-11.9-26.5-26.5V38.8
	c0-14.6,11.9-26.5,26.5-26.5h324.3c14.6,0,26.5,11.9,26.5,26.5v324.3C390,377.8,378.1,389.7,363.5,389.7z"/>
<line fill="#FFFFFF" stroke="#000000" stroke-miterlimit="10" x1="350.1" y1="338.3" x2="53.5" y2="338.3"/>
<g>
	<line fill="#FFFFFF" x1="83.2" y1="338.3" x2="83.2" y2="41.8"/>
	<g>
		<line fill="none" stroke="#A3A3A3" stroke-miterlimit="10" x1="83.2" y1="338.3" x2="83.2" y2="337.8"/>
		
			<line fill="none" stroke="#A3A3A3" stroke-miterlimit="10" stroke-dasharray="1.0018,1.0018" x1="83.2" y1="336.8" x2="83.2" y2="42.8"/>
		<line fill="none" stroke="#A3A3A3" stroke-miterlimit="10" x1="83.2" y1="42.3" x2="83.2" y2="41.8"/>
	</g>
</g>
<g>
	<line fill="#FFFFFF" x1="112.8" y1="338.3" x2="112.8" y2="41.8"/>
	<g>
		<line fill="none" stroke="#A3A3A3" stroke-miterlimit="10" x1="112.8" y1="338.3" x2="112.8" y2="337.8"/>
		
			<line fill="none" stroke="#A3A3A3" stroke-miterlimit="10" stroke-dasharray="1.0018,1.0018" x1="112.8" y1="336.8" x2="112.8" y2="42.8"/>
		<line fill="none" stroke="#A3A3A3" stroke-miterlimit="10" x1="112.8" y1="42.3" x2="112.8" y2="41.8"/>
	</g>
</g>
<g>
	<line fill="#FFFFFF" x1="142.5" y1="338.3" x2="142.5" y2="41.8"/>
	<g>
		<line fill="none" stroke="#A3A3A3" stroke-miterlimit="10" x1="142.5" y1="338.3" x2="142.5" y2="337.8"/>
		
			<line fill="none" stroke="#A3A3A3" stroke-miterlimit="10" stroke-dasharray="1.0018,1.0018" x1="142.5" y1="336.8" x2="142.5" y2="42.8"/>
		<line fill="none" stroke="#A3A3A3" stroke-miterlimit="10" x1="142.5" y1="42.3" x2="142.5" y2="41.8"/>
	</g>
</g>
<g>
	<line fill="#FFFFFF" x1="172.1" y1="338.3" x2="172.1" y2="41.8"/>
	<g>
		<line fill="none" stroke="#A3A3A3" stroke-miterlimit="10" x1="172.1" y1="338.3" x2="172.1" y2="337.8"/>
		
			<line fill="none" stroke="#A3A3A3" stroke-miterlimit="10" stroke-dasharray="1.0018,1.0018" x1="172.1" y1="336.8" x2="172.1" y2="42.8"/>
		<line fill="none" stroke="#A3A3A3" stroke-miterlimit="10" x1="172.1" y1="42.3" x2="172.1" y2="41.8"/>
	</g>
</g>
<g>
	<line fill="#FFFFFF" x1="201.8" y1="338.3" x2="201.8" y2="41.8"/>
	<g>
		<line fill="none" stroke="#A3A3A3" stroke-miterlimit="10" x1="201.8" y1="338.3" x2="201.8" y2="337.8"/>
		
			<line fill="none" stroke="#A3A3A3" stroke-miterlimit="10" stroke-dasharray="1.0018,1.0018" x1="201.8" y1="336.8" x2="201.8" y2="42.8"/>
		<line fill="none" stroke="#A3A3A3" stroke-miterlimit="10" x1="201.8" y1="42.3" x2="201.8" y2="41.8"/>
	</g>
</g>
<g>
	<line fill="#FFFFFF" x1="231.4" y1="338.3" x2="231.4" y2="41.8"/>
	<g>
		<line fill="none" stroke="#A3A3A3" stroke-miterlimit="10" x1="231.4" y1="338.3" x2="231.4" y2="337.8"/>
		
			<line fill="none" stroke="#A3A3A3" stroke-miterlimit="10" stroke-dasharray="1.0018,1.0018" x1="231.4" y1="336.8" x2="231.4" y2="42.8"/>
		<line fill="none" stroke="#A3A3A3" stroke-miterlimit="10" x1="231.4" y1="42.3" x2="231.4" y2="41.8"/>
	</g>
</g>
<g>
	<line fill="#FFFFFF" x1="261.1" y1="338.3" x2="261.1" y2="41.8"/>
	<g>
		<line fill="none" stroke="#A3A3A3" stroke-miterlimit="10" x1="261.1" y1="338.3" x2="261.1" y2="337.8"/>
		
			<line fill="none" stroke="#A3A3A3" stroke-miterlimit="10" stroke-dasharray="1.0018,1.0018" x1="261.1" y1="336.8" x2="261.1" y2="42.8"/>
		<line fill="none" stroke="#A3A3A3" stroke-miterlimit="10" x1="261.1" y1="42.3" x2="261.1" y2="41.8"/>
	</g>
</g>
<g>
	<line fill="#FFFFFF" x1="290.8" y1="338.3" x2="290.8" y2="41.8"/>
	<g>
		<line fill="none" stroke="#A3A3A3" stroke-miterlimit="10" x1="290.8" y1="338.3" x2="290.8" y2="337.8"/>
		
			<line fill="none" stroke="#A3A3A3" stroke-miterlimit="10" stroke-dasharray="1.0018,1.0018" x1="290.8" y1="336.8" x2="290.8" y2="42.8"/>
		<line fill="none" stroke="#A3A3A3" stroke-miterlimit="10" x1="290.8" y1="42.3" x2="290.8" y2="41.8"/>
	</g>
</g>
<g>
	<line fill="#FFFFFF" x1="320.4" y1="338.3" x2="320.4" y2="41.8"/>
	<g>
		<line fill="none" stroke="#A3A3A3" stroke-miterlimit="10" x1="320.4" y1="338.3" x2="320.4" y2="337.8"/>
		
			<line fill="none" stroke="#A3A3A3" stroke-miterlimit="10" stroke-dasharray="1.0018,1.0018" x1="320.4" y1="336.8" x2="320.4" y2="42.8"/>
		<line fill="none" stroke="#A3A3A3" stroke-miterlimit="10" x1="320.4" y1="42.3" x2="320.4" y2="41.8"/>
	</g>
</g>
<g>
	<line fill="#FFFFFF" x1="350.1" y1="338.3" x2="350.1" y2="41.8"/>
	<g>
		<line fill="none" stroke="#A3A3A3" stroke-miterlimit="10" x1="350.1" y1="338.3" x2="350.1" y2="337.8"/>
		
			<line fill="none" stroke="#A3A3A3" stroke-miterlimit="10" stroke-dasharray="1.0018,1.0018" x1="350.1" y1="336.8" x2="350.1" y2="42.8"/>
		<line fill="none" stroke="#A3A3A3" stroke-miterlimit="10" x1="350.1" y1="42.3" x2="350.1" y2="41.8"/>
	</g>
</g>
<g>
	<line fill="#FFFFFF" x1="53.5" y1="71.5" x2="350.1" y2="71.5"/>
	<g>
		<line fill="none" stroke="#A3A3A3" stroke-miterlimit="10" x1="53.5" y1="71.5" x2="54" y2="71.5"/>
		
			<line fill="none" stroke="#A3A3A3" stroke-miterlimit="10" stroke-dasharray="1.0018,1.0018" x1="55" y1="71.5" x2="349.1" y2="71.5"/>
		<line fill="none" stroke="#A3A3A3" stroke-miterlimit="10" x1="349.6" y1="71.5" x2="350.1" y2="71.5"/>
	</g>
</g>
<g>
	<line fill="#FFFFFF" x1="53.5" y1="101.1" x2="350.1" y2="101.1"/>
	<g>
		<line fill="none" stroke="#A3A3A3" stroke-miterlimit="10" x1="53.5" y1="101.1" x2="54" y2="101.1"/>
		
			<line fill="none" stroke="#A3A3A3" stroke-miterlimit="10" stroke-dasharray="1.0018,1.0018" x1="55" y1="101.1" x2="349.1" y2="101.1"/>
		<line fill="none" stroke="#A3A3A3" stroke-miterlimit="10" x1="349.6" y1="101.1" x2="350.1" y2="101.1"/>
	</g>
</g>
<g>
	<line fill="#FFFFFF" x1="53.5" y1="41.8" x2="350.1" y2="41.8"/>
	<g>
		<line fill="none" stroke="#A3A3A3" stroke-miterlimit="10" x1="53.5" y1="41.8" x2="54" y2="41.8"/>
		
			<line fill="none" stroke="#A3A3A3" stroke-miterlimit="10" stroke-dasharray="1.0018,1.0018" x1="55" y1="41.8" x2="349.1" y2="41.8"/>
		<line fill="none" stroke="#A3A3A3" stroke-miterlimit="10" x1="349.6" y1="41.8" x2="350.1" y2="41.8"/>
	</g>
</g>
<g>
	<line fill="#FFFFFF" x1="53.5" y1="130.8" x2="350.1" y2="130.8"/>
	<g>
		<line fill="none" stroke="#A3A3A3" stroke-miterlimit="10" x1="53.5" y1="130.8" x2="54" y2="130.8"/>
		
			<line fill="none" stroke="#A3A3A3" stroke-miterlimit="10" stroke-dasharray="1.0018,1.0018" x1="55" y1="130.8" x2="349.1" y2="130.8"/>
		<line fill="none" stroke="#A3A3A3" stroke-miterlimit="10" x1="349.6" y1="130.8" x2="350.1" y2="130.8"/>
	</g>
</g>
<g>
	<line fill="#FFFFFF" x1="53.5" y1="160.4" x2="350.1" y2="160.4"/>
	<g>
		<line fill="none" stroke="#A3A3A3" stroke-miterlimit="10" x1="53.5" y1="160.4" x2="54" y2="160.4"/>
		
			<line fill="none" stroke="#A3A3A3" stroke-miterlimit="10" stroke-dasharray="1.0018,1.0018" x1="55" y1="160.4" x2="349.1" y2="160.4"/>
		<line fill="none" stroke="#A3A3A3" stroke-miterlimit="10" x1="349.6" y1="160.4" x2="350.1" y2="160.4"/>
	</g>
</g>
<g>
	<line fill="#FFFFFF" x1="53.5" y1="190.1" x2="350.1" y2="190.1"/>
	<g>
		<line fill="none" stroke="#A3A3A3" stroke-miterlimit="10" x1="53.5" y1="190.1" x2="54" y2="190.1"/>
		
			<line fill="none" stroke="#A3A3A3" stroke-miterlimit="10" stroke-dasharray="1.0018,1.0018" x1="55" y1="190.1" x2="349.1" y2="190.1"/>
		<line fill="none" stroke="#A3A3A3" stroke-miterlimit="10" x1="349.6" y1="190.1" x2="350.1" y2="190.1"/>
	</g>
</g>
<g>
	<line fill="#FFFFFF" x1="53.5" y1="219.7" x2="350.1" y2="219.7"/>
	<g>
		<line fill="none" stroke="#A3A3A3" stroke-miterlimit="10" x1="53.5" y1="219.7" x2="54" y2="219.7"/>
		
			<line fill="none" stroke="#A3A3A3" stroke-miterlimit="10" stroke-dasharray="1.0018,1.0018" x1="55" y1="219.7" x2="349.1" y2="219.7"/>
		<line fill="none" stroke="#A3A3A3" stroke-miterlimit="10" x1="349.6" y1="219.7" x2="350.1" y2="219.7"/>
	</g>
</g>
<g>
	<line fill="#FFFFFF" x1="53.5" y1="249.4" x2="350.1" y2="249.4"/>
	<g>
		<line fill="none" stroke="#A3A3A3" stroke-miterlimit="10" x1="53.5" y1="249.4" x2="54" y2="249.4"/>
		
			<line fill="none" stroke="#A3A3A3" stroke-miterlimit="10" stroke-dasharray="1.0018,1.0018" x1="55" y1="249.4" x2="349.1" y2="249.4"/>
		<line fill="none" stroke="#A3A3A3" stroke-miterlimit="10" x1="349.6" y1="249.4" x2="350.1" y2="249.4"/>
	</g>
</g>
<g>
	<line fill="#FFFFFF" x1="53.5" y1="279" x2="350.1" y2="279"/>
	<g>
		<line fill="none" stroke="#A3A3A3" stroke-miterlimit="10" x1="53.5" y1="279" x2="54" y2="279"/>
		
			<line fill="none" stroke="#A3A3A3" stroke-miterlimit="10" stroke-dasharray="1.0018,1.0018" x1="55" y1="279" x2="349.1" y2="279"/>
		<line fill="none" stroke="#A3A3A3" stroke-miterlimit="10" x1="349.6" y1="279" x2="350.1" y2="279"/>
	</g>
</g>
<g>
	<line fill="#FFFFFF" x1="53.5" y1="308.7" x2="350.1" y2="308.7"/>
	<g>
		<line fill="none" stroke="#A3A3A3" stroke-miterlimit="10" x1="53.5" y1="308.7" x2="54" y2="308.7"/>
		
			<line fill="none" stroke="#A3A3A3" stroke-miterlimit="10" stroke-dasharray="1.0018,1.0018" x1="55" y1="308.7" x2="349.1" y2="308.7"/>
		<line fill="none" stroke="#A3A3A3" stroke-miterlimit="10" x1="349.6" y1="308.7" x2="350.1" y2="308.7"/>
	</g>
</g>
<line fill="#FFFFFF" stroke="#000000" stroke-miterlimit="10" x1="53.5" y1="338.3" x2="350.1" y2="338.3"/>
<path fill="#FFFFFF" stroke="#000000" stroke-miterlimit="10" d="M375,0"/>
<text transform="matrix(1 0 0 1 248.3332 34.9998)" font-family="'Helvetica'" font-size="12">Post-test Probability</text>
<text transform="matrix(1 0 0 1 265.3332 373.9998)" font-family="'Helvetica'" font-size="12">negative (-)</text>
<text transform="matrix(1 0 0 1 36.334 41.8222)" font-family="'Helvetica'" font-size="10.9822">1.0</text>
<text transform="matrix(1 0 0 1 36.334 101.126)" font-family="'Helvetica'" font-size="10.9822">0.8</text>
<text transform="matrix(1 0 0 1 36.334 160.4297)" font-family="'Helvetica'" font-size="10.9822">0.6</text>
<text transform="matrix(1 0 0 1 36.334 219.7334)" font-family="'Helvetica'" font-size="10.9822">0.4</text>
<text transform="matrix(1 0 0 1 36.334 279.0371)" font-family="'Helvetica'" font-size="10.9822">0.2</text>
<text transform="matrix(1 0 0 1 105.8877 350.4209)" font-family="'Helvetica'" font-size="10.9822">0.2</text>
<text transform="matrix(1 0 0 1 165.1914 350.4209)" font-family="'Helvetica'" font-size="10.9822">0.4</text>
<text transform="matrix(1 0 0 1 224.4951 350.4209)" font-family="'Helvetica'" font-size="10.9822">0.6</text>
<text transform="matrix(1 0 0 1 283.7988 350.4209)" font-family="'Helvetica'" font-size="10.9822">0.8</text>
<text transform="matrix(1 0 0 1 343.1025 350.4209)" font-family="'Helvetica'" font-size="10.9822">1.0</text>
<text transform="matrix(1 0 0 1 36.334 350.4209)" font-family="'Helvetica'" font-size="10.9822">0.0</text>
<line fill="none" stroke="#FF0000" stroke-width="2" stroke-miterlimit="10" x1="326" y1="371" x2="350" y2="371"/>
<text transform="matrix(1 0 0 1 172.3332 373.9998)" font-family="'Helvetica'" font-size="12">positive (+)</text>
<line fill="none" stroke="#0000FF" stroke-width="2" stroke-miterlimit="10" x1="233" y1="371" x2="257" y2="371"/>
<polyline fill="none" stroke="#000000" stroke-miterlimit="10" points="350.1,338.3 53.5,338.3 53.5,41.8 "/>
<path fill="none" stroke="#FF0000" stroke-width="2" stroke-miterlimit="10" d="M53.5,338.3"/>
</svg>
