<svg xmlns="http://www.w3.org/2000/svg" viewBox="0 0 403 404" enable-background="new 0 0 403 404">
    <path fill="#fff" stroke="#000" stroke-miterlimit="10" d="M363.5 389.7H39.2c-14.6 0-26.5-11.9-26.5-26.5V38.8c0-14.6 11.9-26.5 26.5-26.5h324.3c14.6 0 26.5 11.9 26.5 26.5v324.3c0 14.7-11.9 26.6-26.5 26.6zM350.1 338.3H53.5"/>
    <g fill="none" stroke="#A3A3A3" stroke-miterlimit="10">
        <path d="M83.2 338.3v-.5"/>
        <path stroke-dasharray="1.0018,1.0018" d="M83.2 336.8v-294"/>
        <path d="M83.2 42.3v-.5"/>
        <path d="M112.8 338.3v-.5"/>
        <path stroke-dasharray="1.0018,1.0018" d="M112.8 336.8v-294"/>
        <path d="M112.8 42.3v-.5"/>
        <path d="M142.5 338.3v-.5"/>
        <path stroke-dasharray="1.0018,1.0018" d="M142.5 336.8v-294"/>
        <path d="M142.5 42.3v-.5"/>
        <path d="M172.1 338.3v-.5"/>
        <path stroke-dasharray="1.0018,1.0018" d="M172.1 336.8v-294"/>
        <path d="M172.1 42.3v-.5"/>
        <path d="M201.8 338.3v-.5"/>
        <path stroke-dasharray="1.0018,1.0018" d="M201.8 336.8v-294"/>
        <path d="M201.8 42.3v-.5"/>
        <path d="M231.4 338.3v-.5"/>
        <path stroke-dasharray="1.0018,1.0018" d="M231.4 336.8v-294"/>
        <path d="M231.4 42.3v-.5"/>
        <path d="M261.1 338.3v-.5"/>
        <path stroke-dasharray="1.0018,1.0018" d="M261.1 336.8v-294"/>
        <path d="M261.1 42.3v-.5"/>
        <path d="M290.8 338.3v-.5"/>
        <path stroke-dasharray="1.0018,1.0018" d="M290.8 336.8v-294"/>
        <path d="M290.8 42.3v-.5"/>
        <path d="M320.4 338.3v-.5"/>
        <path stroke-dasharray="1.0018,1.0018" d="M320.4 336.8v-294"/>
        <path d="M320.4 42.3v-.5"/>
        <path d="M350.1 338.3v-.5"/>
        <path stroke-dasharray="1.0018,1.0018" d="M350.1 336.8v-294"/>
        <path d="M350.1 42.3v-.5"/>
        <path d="M53.5 71.5h.5"/>
        <path stroke-dasharray="1.0018,1.0018" d="M55 71.5h294.1"/>
        <path d="M349.6 71.5h.5"/>
        <path d="M53.5 101.1h.5"/>
        <path stroke-dasharray="1.0018,1.0018" d="M55 101.1h294.1"/>
        <path d="M349.6 101.1h.5"/>
        <path d="M53.5 41.8h.5"/>
        <path stroke-dasharray="1.0018,1.0018" d="M55 41.8h294.1"/>
        <path d="M349.6 41.8h.5"/>
        <path d="M53.5 130.8h.5"/>
        <path stroke-dasharray="1.0018,1.0018" d="M55 130.8h294.1"/>
        <path d="M349.6 130.8h.5"/>
        <path d="M53.5 160.4h.5"/>
        <path stroke-dasharray="1.0018,1.0018" d="M55 160.4h294.1"/>
        <path d="M349.6 160.4h.5"/>
        <path d="M53.5 190.1h.5"/>
        <path stroke-dasharray="1.0018,1.0018" d="M55 190.1h294.1"/>
        <path d="M349.6 190.1h.5"/>
        <path d="M53.5 219.7h.5"/>
        <path stroke-dasharray="1.0018,1.0018" d="M55 219.7h294.1"/>
        <path d="M349.6 219.7h.5"/>
        <path d="M53.5 249.4h.5"/>
        <path stroke-dasharray="1.0018,1.0018" d="M55 249.4h294.1"/>
        <path d="M349.6 249.4h.5"/>
        <path d="M53.5 279h.5"/>
        <path stroke-dasharray="1.0018,1.0018" d="M55 279h294.1"/>
        <path d="M349.6 279h.5"/>
        <path d="M53.5 308.7h.5"/>
        <path stroke-dasharray="1.0018,1.0018" d="M55 308.7h294.1"/>
        <path d="M349.6 308.7h.5"/>
    </g>
    <g>
        <text transform="translate(248.333 35)" font-family="'Helvetica'" font-size="12">
            Post-test Probability
        </text>
        <text transform="translate(265.333 374)" font-family="'Helvetica'" font-size="12">
            negative (-)
        </text>
        <text transform="translate(36.334 41.822)" font-family="'Helvetica'" font-size="10.982">
            1.0
        </text>
        <text transform="translate(36.334 101.126)" font-family="'Helvetica'" font-size="10.982">
            0.8
        </text>
        <text transform="translate(36.334 160.43)" font-family="'Helvetica'" font-size="10.982">
            0.6
        </text>
        <text transform="translate(36.334 219.733)" font-family="'Helvetica'" font-size="10.982">
            0.4
        </text>
        <text transform="translate(36.334 279.037)" font-family="'Helvetica'" font-size="10.982">
            0.2
        </text>
        <text transform="translate(105.888 350.421)" font-family="'Helvetica'" font-size="10.982">
            0.2
        </text>
        <text transform="translate(165.191 350.421)" font-family="'Helvetica'" font-size="10.982">
            0.4
        </text>
        <text transform="translate(224.495 350.421)" font-family="'Helvetica'" font-size="10.982">
            0.6
        </text>
        <text transform="translate(283.799 350.421)" font-family="'Helvetica'" font-size="10.982">
            0.8
        </text>
        <text transform="translate(343.103 350.421)" font-family="'Helvetica'" font-size="10.982">
            1.0
        </text>
        <text transform="translate(36.334 350.421)" font-family="'Helvetica'" font-size="10.982">
            0.0
        </text>
        <text transform="translate(172.333 374)" font-family="'Helvetica'" font-size="12">
            positive (+)
        </text>
    </g>
    <path fill="none" stroke="#00f" stroke-width="2" stroke-miterlimit="10" d="M233 371h24"/>
    <path fill="none" stroke="#f00" stroke-width="2" stroke-miterlimit="10" d="M326 371h24"/>
    <g transform="translate(53.5, 42)">
        <rect x="0" y="0" width="297" height="296" stroke="black" fill="transparent" stroke-width="1"/>
        <!--
        <path fill="none" stroke="#f00" stroke-width="2" stroke-miterlimit="10" d="M296.3,0 L0,296.3 M0,296.3"/>
        <path fill="none" stroke="#00f" stroke-width="2" stroke-miterlimit="10" d="M0,296.3 S231.1,220 296.3,0"/>
        -->
        <path fill="none" stroke="#f00" stroke-width="2" stroke-miterlimit="10"
            d="M296.3,0 L0,296.3 M0,296.3"
        />
        <path fill="none" stroke="#00f" stroke-width="2" stroke-miterlimit="10"
            d="M0,296 L0.297,293.06640237859267 L0.594,290.1846758349705 L0.891,287.35345666991236 L1.188,284.57142857142856 L1.485,281.8373205741627 L1.782,279.14990512333964 L2.079,276.5079962370649 L2.376,273.910447761194 L2.6730000000000005,271.35615171137835 L2.9700000000000006,268.8440366972477 L3.267000000000001,266.37306642402183 L3.564000000000001,263.942238267148 L3.8610000000000015,261.550581915846 L4.158000000000001,259.19715808170514 L4.455000000000002,256.88105726872243 L4.7520000000000024,254.60139860139859 L5.049000000000002,252.35732870771898 L5.346000000000003,250.14802065404473 L5.643000000000003,247.9726729291204 L5.940000000000003,245.83050847457625 L6.237000000000004,243.7207737594617 L6.534000000000003,241.6427378964941 L6.831000000000004,239.59569179784586 L7.1280000000000046,237.578947368421 L7.425000000000004,235.59183673469386 L7.722000000000005,233.63371150729333 L8.019000000000005,231.70394207562344 L8.316000000000006,229.80191693290732 L8.613000000000005,227.92704203013477 L8.910000000000005,226.07874015748027 L9.207000000000006,224.25645035183734 L9.504000000000007,222.4596273291925 L9.801000000000007,220.68774094063218 L10.098000000000006,218.94027565084224 L10.395000000000007,217.21673003802277 L10.692000000000007,215.51661631419933 L10.989000000000008,213.83945986496622 L11.286000000000008,212.1847988077496 L11.583000000000009,210.55218356772758 L11.880000000000008,208.9411764705882 L12.177000000000008,207.3513513513513 L12.474000000000009,205.78229317851955 L12.77100000000001,204.23359769286225 L13.06800000000001,202.70487106017188 L13.365000000000009,201.1957295373665 L13.66200000000001,199.70579915134368 L13.95900000000001,198.23471539002105 L14.25600000000001,196.78212290502788 L14.553000000000011,195.34767522553778 L14.85000000000001,193.93103448275855 L15.147000000000011,192.53187114461954 L15.444000000000011,191.14986376021793 L15.741000000000012,189.78469871360863 L16.03800000000001,188.43606998654099 L16.33500000000001,187.10367892976583 L16.632000000000012,185.78723404255314 L16.929000000000013,184.48645076007926 L17.226000000000013,183.20105124835737 L17.523000000000014,181.93076420640102 L17.820000000000014,180.67532467532462 L18.117000000000015,179.43447385409937 L18.414000000000016,178.2079589216944 L18.711000000000013,176.99553286534777 L19.008000000000013,175.79695431472078 L19.305000000000014,174.61198738170341 L19.602000000000015,173.44040150564612 L19.899000000000015,172.28197130380534 L20.196000000000012,171.13647642679896 L20.493000000000013,170.00370141887717 L20.790000000000013,168.88343558282205 L21.087000000000014,167.7754728492983 L21.384000000000015,166.67961165048538 L21.681000000000015,165.59565479782736 L21.978000000000016,164.52340936374543 L22.275000000000016,163.46268656716413 L22.572000000000017,162.4133016627078 L22.869000000000018,161.3750738334317 L23.166000000000018,160.34782608695645 L23.463000000000015,159.33138515488014 L23.760000000000016,158.3255813953488 L24.057000000000016,157.3302486986697 L24.354000000000017,156.34522439585723 L24.651000000000018,155.37034917000568 L24.948000000000018,154.40546697038718 L25.24500000000002,153.4504249291784 L25.54200000000002,152.5050732807215 L25.83900000000002,151.56926528323046 L26.13600000000002,150.64285714285708 L26.433000000000018,149.72570794003326 L26.730000000000018,148.817679558011 L27.02700000000002,147.9186366135239 L27.32400000000002,147.02844638949668 L27.62100000000002,146.1469787697332 L27.91800000000002,145.27410617551456 L28.21500000000002,144.40970350404308 L28.51200000000002,143.55364806866945 L28.809000000000022,142.70581954084352 L29.106000000000023,141.86609989373002 L29.403000000000024,141.03437334743518 L29.70000000000002,140.21052631578942 L29.99700000000002,139.39444735463584 L30.294000000000022,138.5860271115745 L30.591000000000022,137.78515827711462 L30.888000000000023,136.99173553718998 L31.185000000000024,136.20565552699222 L31.482000000000024,135.4268167860798 L31.779000000000025,134.6551197147223 L32.07600000000002,133.8904665314401 L32.373000000000026,133.13276123170112 L32.67000000000002,132.38190954773862 L32.96700000000003,131.63781890945467 L33.264000000000024,130.90039840637445 L33.56100000000003,130.16955875061964 L33.858000000000025,129.44521224086864 L34.15500000000003,128.72727272727266 L34.45200000000003,128.01565557729936 L34.749000000000024,127.31027764247438 L35.04600000000003,126.61105722599413 L35.343000000000025,125.91791405118295 L35.64000000000003,125.23076923076917 L35.937000000000026,124.54954523695545 L36.23400000000003,123.87416587225925 L36.53100000000003,123.20455624110105 L36.82800000000003,122.54064272211713 L37.12500000000002,121.8823529411764 L37.422000000000025,121.22961574507963 L37.71900000000002,120.5823611759215 L38.01600000000003,119.94052044609657 L38.313000000000024,119.30402591392868 L38.61000000000003,118.67281105990776 L38.907000000000025,118.0468104635153 L39.20400000000003,117.42595978062153 L39.501000000000026,116.81019572143828 L39.79800000000003,116.19945602901174 L40.09500000000003,115.59367945823922 L40.392000000000024,114.99280575539564 L40.68900000000003,114.3967756381549 L40.986000000000026,113.80553077609272 L41.28300000000003,113.21901377165699 L41.58000000000003,112.63716814159287 L41.87700000000003,112.05993829881004 L42.17400000000003,111.48726953467948 L42.47100000000003,110.91910800174895 L42.76800000000003,110.35540069686405 L43.06500000000003,109.79609544468539 L43.36200000000003,109.24114088159024 L43.65900000000003,108.69048643994827 L43.95600000000003,108.14408233276151 L44.25300000000003,107.60187953865864 L44.55000000000003,107.063829787234 L44.84700000000003,106.52988554472228 L45.144000000000034,105.99999999999994 L45.44100000000003,105.47412705090446 L45.738000000000035,104.95222129086332 L46.03500000000003,104.43423799582459 L46.332000000000036,103.9201331114808 L46.62900000000003,103.40986324077909 L46.92600000000003,102.90338563170926 L47.223000000000035,102.40065816536398 L47.52000000000003,101.90163934426224 L47.817000000000036,101.40628828093091 L48.11400000000003,100.91456468673712 L48.41100000000004,100.42642886096468 L48.708000000000034,99.94184168012919 L49.00500000000004,99.46076458752512 L49.302000000000035,98.98315958299912 L49.59900000000004,98.50898921294439 L49.896000000000036,98.03821656050951 L50.19300000000003,97.5708052360174 L50.49000000000004,97.10671936758885 L50.787000000000035,96.64592359196527 L51.08400000000004,96.18838304552585 L51.381000000000036,95.73406335549467 L51.67800000000004,95.28293063133276 L51.97500000000004,94.83495145631059 L52.27200000000004,94.39009287925691 L52.56900000000004,93.94832240647892 L52.866000000000035,93.50960799385084 L53.16300000000004,93.07391803906543 L53.460000000000036,92.64122137404576 L53.75700000000004,92.21148725751229 L54.05400000000004,91.78468536770274 L54.35100000000004,91.36078579523982 L54.64800000000004,90.93975903614452 L54.94500000000004,90.52157598499056 L55.24200000000004,90.10620792819742 L55.539000000000044,89.69362653745802 L55.83600000000004,89.2838038632986 L56.13300000000004,88.87671232876707 L56.43000000000004,88.4723247232472 L56.72700000000004,88.0706141963957 L57.02400000000004,87.67155425219934 L57.32100000000004,87.27511874314936 L57.618000000000045,86.88128186453017 L57.91500000000004,86.4900181488203 L58.212000000000046,86.10130246020256 L58.50900000000004,85.71510998918134 L58.80600000000005,85.33141624730402 L59.103000000000044,84.95019706198491 L59.40000000000004,84.57142857142853 L59.697000000000045,84.19508721965104 L59.99400000000004,83.82114975159683 L60.29100000000005,83.449593208348 L60.588000000000044,83.08039492242588 L60.88500000000005,82.71353251318095 L61.182000000000045,82.34898388227046 L61.47900000000005,81.98672720922104 L61.776000000000046,81.62674094707515 L62.07300000000005,81.26900381811865 L62.37000000000005,80.91349480968853 L62.667000000000044,80.56019317005857 L62.96400000000005,80.2090784044016 L63.261000000000045,79.86013027082615 L63.55800000000005,79.51332877648662 L63.85500000000005,79.16865417376488 L64.15200000000004,78.82608695652169 L64.44900000000005,78.48560785641715 L64.74600000000005,78.14719783929772 L65.04300000000005,77.81083810164921 L65.34000000000005,77.47651006711405 L65.63700000000004,77.1441953830712 L65.93400000000005,76.81387591727812 L66.23100000000005,76.4855337545726 L66.52800000000005,76.15915119363387 L66.82500000000005,75.8347107438016 L67.12200000000006,75.51219512195118 L67.41900000000005,75.19158724942483 L67.71600000000005,74.87287024901698 L68.01300000000005,74.55602744201235 L68.31000000000006,74.24104234527681 L68.60700000000006,73.92789866839877 L68.90400000000005,73.61658031088075 L69.20100000000005,73.30707135937999 L69.49800000000005,72.99935608499672 L69.79500000000006,72.69341894060994 L70.09200000000006,72.38924455825861 L70.38900000000005,72.08681774656873 L70.68600000000005,71.786123488224 L70.98300000000006,71.48714693748013 L71.28000000000006,71.18987341772143 L71.57700000000006,70.89428841905956 L71.87400000000005,70.60037759597228 L72.17100000000005,70.30812676498266 L72.46800000000006,70.01752190237795 L72.76500000000006,69.72854914196563 L73.06200000000005,69.44119477286864 L73.35900000000005,69.15544523735647 L73.65600000000006,68.8712871287128 L73.95300000000006,68.58870718913911 L74.25000000000004,68.30769230769226 L74.54700000000005,68.02822951825706 L74.84400000000005,67.75030599755195 L75.14100000000005,67.47390906316753 L75.43800000000005,67.19902617163717 L75.73500000000006,66.92564491654016 L76.03200000000005,66.65375302663435 L76.32900000000005,66.38333836402049 L76.62600000000005,66.11438892233585 L76.92300000000006,65.84689282497746 L77.22000000000006,65.58083832335325 L77.51700000000005,65.3162137951627 L77.81400000000005,65.05300774270395 L78.11100000000005,64.79120879120876 L78.40800000000006,64.53080568720372 L78.70500000000006,64.27178729689803 L79.00200000000005,64.01414260459626 L79.29900000000005,63.75786071113717 L79.59600000000006,63.502930832356355 L79.89300000000006,63.249342297573776 L80.19000000000005,62.99708454810488 L80.48700000000005,62.74614713579521 L80.78400000000005,62.4965197215777 L81.08100000000006,62.24819207405264 L81.37800000000006,62.00115406808993 L81.67500000000005,61.75539568345317 L81.97200000000005,61.51090700344426 L82.26900000000006,61.26767821356995 L82.56600000000006,61.02569960022839 L82.86300000000006,60.78496154941607 L83.16000000000005,60.545454545454504 L83.45700000000006,60.307169169736426 L83.75400000000006,60.070096099491195 L84.05100000000006,59.83422610656888 L84.34800000000006,59.59955005624292 L84.64500000000005,59.366058906030844 L84.94200000000006,59.13374370453269 L85.23900000000006,58.90259559028743 L85.53600000000006,58.67260579064583 L85.83300000000006,58.44376562066088 L86.13000000000007,58.2160664819944 L86.42700000000006,57.989499861840244 L86.72400000000006,57.764057331863256 L87.02100000000006,57.53973054715419 L87.31800000000005,57.31651124520016 L87.61500000000007,57.094391244869996 L87.91200000000006,56.873362445414784 L88.20900000000006,56.65341682548325 L88.50600000000006,56.434546442150946 L88.80300000000007,56.21674342996471 L89.10000000000007,55.99999999999994 L89.39700000000006,55.7843084389323 L89.69400000000006,55.5696611081226 L89.99100000000006,55.356050442715286 L90.28800000000007,55.14346895074942 L90.58500000000006,54.93190921228302 L90.88200000000006,54.72136387852953 L91.17900000000006,54.51182567100713 L91.47600000000007,54.30328738069986 L91.77300000000007,54.09574186723083 L92.07000000000006,53.889182058047425 L92.36700000000006,53.68360094761775 L92.66400000000007,53.47899159663859 L92.96100000000007,53.275347131254875 L93.25800000000007,53.07266074228957 L93.55500000000006,52.87092568448497 L93.85200000000006,52.670135275754376 L94.14900000000007,52.4702828964443 L94.44600000000007,52.27136198860691 L94.74300000000007,52.073366055282804 L95.04000000000006,51.87628865979377 L95.33700000000007,51.68012342504494 L95.63400000000007,51.48486403283732 L95.93100000000007,51.29050422318912 L96.22800000000007,51.09703779366697 L96.52500000000006,50.90445859872608 L96.82200000000007,50.712760549059425 L97.11900000000007,50.52193761095609 L97.41600000000007,50.33198380566796 L97.71300000000006,50.14289320878561 L98.01000000000008,49.95465994962211 L98.30700000000007,49.76727821060564 L98.60400000000007,49.58074222668 L98.90100000000007,49.395046284713516 L99.19800000000008,49.210184722915585 L99.49500000000008,49.02615193026148 L99.79200000000007,48.84294234592443 L100.08900000000007,48.66055045871556 L100.38600000000007,48.47897080653135 L100.68300000000008,48.29819797580839 L100.98000000000008,48.11822660098517 L101.27700000000007,47.93905136397146 L101.57400000000007,47.760666993624284 L101.87100000000008,47.58306826523116 L102.16800000000008,47.40624999999997 L102.46500000000007,47.23020706455537 L102.76200000000007,47.05493437044234 L103.05900000000007,46.880426873635656 L103.35600000000008,46.706679574056096 L103.65300000000008,46.53368751509291 L103.95000000000007,46.361445783132496 L104.24700000000007,46.18994950709299 L104.54400000000008,46.019193857965405 L104.84100000000008,45.84917404836003 L105.13800000000008,45.6798853320592 L105.43500000000007,45.511323003575654 L105.73200000000007,45.34348239771643 L106.02900000000008,45.176358889152596 L106.32600000000008,45.00994789199427 L106.62300000000008,44.84424485937126 L106.92000000000007,44.679245283018815 L107.21700000000008,44.51494469286885 L107.51400000000008,44.35133865664628 L107.81100000000008,44.1884227794703 L108.10800000000008,44.026192703461135 L108.40500000000009,43.86464410735118 L108.70200000000008,43.70377270610149 L108.99900000000008,43.54357425052285 L109.29600000000008,43.38404452690162 L109.59300000000007,43.22517935663035 L109.89000000000009,43.06697459584291 L110.18700000000008,42.909426135054105 L110.48400000000008,42.752529898804 L110.78100000000008,42.59628184530635 L111.07800000000009,42.440677966101646 L111.37500000000009,42.28571428571422 L111.67200000000008,42.13138686131384 L111.96900000000008,41.977691782381015 L112.26600000000008,41.82462517037703 L112.56300000000009,41.67218317841753 L112.86000000000008,41.520361990950164 L113.15700000000008,41.36915782343641 L113.45400000000008,41.21856692203693 L113.75100000000009,41.06858556330104 L114.04800000000009,40.91921005385993 L114.34500000000008,40.77043673012312 L114.64200000000008,40.62226195797939 L114.93900000000009,40.474682132500504 L115.23600000000009,40.32769367764911 L115.53300000000009,40.18129304598975 L115.83000000000008,40.035476718403515 L116.12700000000008,39.89024120380611 L116.42400000000009,39.7455830388692 L116.72100000000009,39.60149878774513 L117.01800000000009,39.45798504179493 L117.31500000000008,39.31503841931942 L117.6120000000001,39.17265556529355 L117.90900000000009,39.030833151104275 L118.20600000000009,38.88956787429066 L118.50300000000009,38.748856458287946 L118.80000000000008,38.60869565217388 L119.0970000000001,38.46908223041868 L119.39400000000009,38.33001299263748 L119.69100000000009,38.19148476334556 L119.98800000000008,38.05349439171698 L120.2850000000001,37.91603875134547 L120.5820000000001,37.779114740008595 L120.87900000000009,37.64271927943378 L121.17600000000009,37.50684931506845 L121.4730000000001,37.371501815851275 L121.7700000000001,37.23667377398715 L122.06700000000009,37.102362204724386 L122.36400000000009,36.968564146134156 L122.66100000000009,36.83527665889329 L122.9580000000001,36.70249682606857 L123.2550000000001,36.570221752903876 L123.55200000000009,36.43844856661042 L123.84900000000009,36.307174416158205 L124.1460000000001,36.17639647207051 L124.4430000000001,36.04611192622093 L124.7400000000001,35.91631799163173 L125.03700000000009,35.78701190227599 L125.33400000000009,35.65819091288034 L125.6310000000001,35.52985229873099 L125.9280000000001,35.40199335548169 L126.2250000000001,35.274611398963714 L126.52200000000009,35.147703764997914 L126.8190000000001,35.02126780920912 L127.1160000000001,34.89530090684252 L127.4130000000001,34.76980045258176 L127.7100000000001,34.64476386036961 L128.0070000000001,34.520188563230136 L128.3040000000001,34.39607201309326 L128.60100000000008,34.272411680620735 L128.8980000000001,34.1492050550346 L129.1950000000001,34.026449643947046 L129.4920000000001,33.904142973192506 L129.7890000000001,33.78228258666127 L130.0860000000001,33.66086604613514 L130.3830000000001,33.539890931125 L130.6800000000001,33.41935483870964 L130.9770000000001,33.299255383376874 L131.2740000000001,33.17959019686617 L131.5710000000001,33.060356928012766 L131.8680000000001,32.94155324259407 L132.1650000000001,32.82317682317682 L132.4620000000001,32.705225368966865 L132.7590000000001,32.58769659565996 L133.0560000000001,32.47058823529409 L133.3530000000001,32.353898036103885 L133.6500000000001,32.23762376237619 L133.94700000000012,32.12176319430711 L134.2440000000001,32.00631412786106 L134.5410000000001,31.891274374630655 L134.8380000000001,31.776641761698727 L135.1350000000001,31.662414131501407 L135.4320000000001,31.548589341692775 L135.7290000000001,31.43516526501071 L136.0260000000001,31.322139789144785 L136.3230000000001,31.209510816604904 L136.62000000000012,31.097276264591414 L136.91700000000012,30.985434064866922 L137.2140000000001,30.87398216362925 L137.5110000000001,30.7629185213857 L137.8080000000001,30.652241112828392 L138.1050000000001,30.5419479267116 L138.4020000000001,30.43203696572965 L138.6990000000001,30.3225062463963 L138.9960000000001,30.21335379892554 L139.29300000000012,30.104577667113574 L139.59000000000012,29.996175908221744 L139.8870000000001,29.888146592861176 L140.1840000000001,29.78048780487802 L140.4810000000001,29.673197641240222 L140.7780000000001,29.56627421192553 L141.0750000000001,29.459715639810383 L141.3720000000001,29.35352006056013 L141.6690000000001,29.247685622520294 L141.96600000000012,29.142210486608747 L142.26300000000012,29.037092826209744 L142.56000000000012,28.93233082706763 L142.8570000000001,28.82792268718333 L143.1540000000001,28.723866616710325 L143.4510000000001,28.62016083785295 L143.7480000000001,28.516803584764716 L144.0450000000001,28.413793103448256 L144.3420000000001,28.31112765165608 L144.63900000000012,28.208805498792458 L144.93600000000012,28.106824925816 L145.23300000000012,28.005184225143466 L145.53000000000011,27.903881700554507 L145.8270000000001,27.80291566709718 L146.1240000000001,27.702284450994796 L146.4210000000001,27.60198638955302 L146.7180000000001,27.50201983106865 L147.0150000000001,27.402383134738727 L147.31200000000013,27.303074670570993 L147.60900000000012,27.204092819294715 L147.90600000000012,27.105435972272858 L148.20300000000012,27.007102531415 L148.50000000000009,26.909090909090878 L148.7970000000001,26.811399528045 L149.0940000000001,26.714026821312018 L149.3910000000001,26.616971232133153 L149.6880000000001,26.52023121387282 L149.9850000000001,26.423805229936818 L150.2820000000001,26.327691753691 L150.5790000000001,26.231889268380314 L150.8760000000001,26.136396267049463 L151.17300000000012,26.041211252463654 L151.4700000000001,25.94633273703039 L151.7670000000001,25.85175924272187 L152.0640000000001,25.757489300998543 L152.3610000000001,25.663521452732766 L152.6580000000001,25.56985424813365 L152.9550000000001,25.47648624667255 L153.2520000000001,25.38341601700921 L153.5490000000001,25.29064213691845 L153.84600000000012,25.19816319321791 L154.14300000000011,25.10597778169631 L154.4400000000001,25.01408450704224 L154.7370000000001,24.922481982773718 L155.0340000000001,24.83116883116878 L155.3310000000001,24.740143683196038 L155.6280000000001,24.649405178446443 L155.9250000000001,24.55895196506549 L156.2220000000001,24.468782699686017 L156.51900000000012,24.37889604736199 L156.81600000000012,24.289290681502052 L157.1130000000001,24.199965283804886 L157.4100000000001,24.110918544194078 L157.7070000000001,24.022149160754452 L158.0040000000001,23.93365583966829 L158.3010000000001,23.845437295152635 L158.5980000000001,23.75749224939716 L158.8950000000001,23.669819432502095 L159.19200000000012,23.582417582417577 L159.48900000000012,23.49528544488254 L159.78600000000012,23.408421773365262 L160.0830000000001,23.32182532900356 L160.3800000000001,23.23549488054607 L160.6770000000001,23.14942920429371 L160.9740000000001,23.06362708404214 L161.2710000000001,22.97808731102424 L161.5680000000001,22.892808683853445 L161.86500000000012,22.80779000846735 L162.16200000000012,22.723030098072343 L162.45900000000012,22.638527773087958 L162.7560000000001,22.554281861092363 L163.0530000000001,22.470291196768187 L163.3500000000001,22.38655462184869 L163.6470000000001,22.303070985064608 L163.9440000000001,22.219839142091132 L164.2410000000001,22.136857955496055 L164.53800000000012,22.054126294687592 L164.83500000000012,21.971643035863167 L165.13200000000012,21.88940706195865 L165.42900000000012,21.807417262597653 L165.7260000000001,21.72567253404179 L166.0230000000001,21.64417177914106 L166.3200000000001,21.562913907284724 L166.6170000000001,21.481897834352765 L166.91400000000013,21.401122482667517 L167.21100000000013,21.320586780946087 L167.50800000000012,21.24028966425277 L167.80500000000012,21.160230073952334 L168.10200000000012,21.08040695766323 L168.39900000000011,21.00081926921183 L168.6960000000001,20.921465968586347 L168.9930000000001,20.842346021891785 L169.2900000000001,20.763458401305 L169.58700000000013,20.684802085030128 L169.88400000000013,20.60637605725435 L170.18100000000013,20.52817930810454 L170.47800000000012,20.45021083360359 L170.77500000000012,20.37246963562751 L171.07200000000012,20.294954721862837 L171.3690000000001,20.217665105764524 L171.6660000000001,20.14059980651399 L171.9630000000001,20.063757848977616 L172.26000000000013,19.987138263665543 L172.55700000000013,19.91074008669125 L172.85400000000013,19.834562359730626 L173.15100000000012,19.75860412998236 L173.44800000000012,19.682864450127852 L173.74500000000012,19.60734237829206 L174.04200000000012,19.53203697800444 L174.3390000000001,19.456947318160076 L174.6360000000001,19.38207247298152 L174.93300000000013,19.30741152198061 L175.23000000000013,19.232963549920726 L175.52700000000013,19.15872764677954 L175.82400000000013,19.084702907711744 L176.12100000000012,19.01088843301244 L176.41800000000012,18.93728332808064 L176.71500000000012,18.863886703383116 L177.0120000000001,18.790697674418595 L177.3090000000001,18.717715361682053 L177.60600000000014,18.644938890629874 L177.90300000000013,18.572367391644434 L178.20000000000013,18.5 L178.49700000000013,18.42783585582771 L178.79400000000012,18.35587410408226 L179.09100000000012,18.28411389450747 L179.38800000000012,18.212554381603468 L179.68500000000012,18.14119472459265 L179.9820000000001,18.070034087387626 L180.27900000000014,17.999071638557893 L180.57600000000014,17.92830655129785 L180.87300000000013,17.857738003394502 L181.17000000000013,17.787365177195625 L181.46700000000013,17.717187259578395 L181.76400000000012,17.64720344191761 L182.06100000000012,17.577412920055224 L182.35800000000012,17.507814894269018 L182.65500000000014,17.438408569242483 L182.95200000000014,17.369193154034235 L183.24900000000014,17.300167862047886 L183.54600000000013,17.231331911002712 L183.84300000000013,17.162684522903646 L184.14000000000013,17.09422492401211 L184.43700000000013,17.025952344817085 L184.73400000000012,16.95786602000601 L185.03100000000012,16.889965188436463 L185.32800000000015,16.822249093107587 L185.62500000000014,16.75471698113205 L185.92200000000014,16.68736810370814 L186.21900000000014,16.620201716092083 L186.51600000000013,16.553217077570594 L186.81300000000013,16.48641345143369 L187.11000000000013,16.419790104947538 L187.40700000000012,16.35334630932772 L187.70400000000012,16.28708133971287 L188.00100000000015,16.22099447513807 L188.29800000000014,16.155084998508755 L188.59500000000014,16.089352196574794 L188.89200000000014,16.023795359904796 L189.18900000000014,15.958413782860532 L189.48600000000013,15.893206763571584 L189.78300000000013,15.8281736039105 L190.08000000000013,15.763313609467446 L190.37700000000012,15.69862608952576 L190.67400000000015,15.634110357037457 L190.97100000000015,15.569765728598782 L191.26800000000014,15.505591524426109 L191.56500000000014,15.441587068332069 L191.86200000000014,15.377751687701732 L192.15900000000013,15.314084713469128 L192.45600000000013,15.250585480093662 L192.75300000000013,15.187253325537142 L193.05000000000013,15.12408759124088 L193.34700000000015,15.06108762210232 L193.64400000000015,14.998252766453106 L193.94100000000014,14.935582376036052 L194.23800000000014,14.873075805983092 L194.53500000000014,14.810732414793279 L194.83200000000014,14.748551564310503 L195.12900000000013,14.686532619702007 L195.42600000000013,14.624674949436553 L195.72300000000013,14.562977925263283 L196.02000000000015,14.50144092219017 L196.31700000000015,14.440063318463046 L196.61400000000015,14.378844495544683 L196.91100000000014,14.317783838093874 L197.20800000000014,14.25688073394491 L197.50500000000014,14.196134574087296 L197.80200000000013,14.135544752645103 L198.09900000000013,14.075110666857029 L198.39600000000016,14.014831717056438 L198.69300000000015,13.954707306651471 L198.99000000000015,13.89473684210526 L199.28700000000015,13.834919732916603 L199.58400000000015,13.77525539160041 L199.88100000000014,13.715743233668661 L200.17800000000014,13.656382677611077 L200.47500000000014,13.597173144876308 L200.77200000000013,13.538114059853172 L201.06900000000016,13.479204849851953 L201.36600000000016,13.420444945085876 L201.66300000000015,13.361833778652795 L201.96000000000015,13.303370786516837 L202.25700000000015,13.245055407490497 L202.55400000000014,13.186887083216561 L202.85100000000014,13.128865258150256 L203.14800000000014,13.07098937954163 L203.44500000000014,13.013258897417984 L203.74200000000016,12.955673264566485 L204.03900000000016,12.898231936516709 L204.33600000000015,12.840934371523872 L204.63300000000015,12.78378003055127 L204.93000000000015,12.72676837725379 L205.22700000000015,12.669898877960918 L205.52400000000014,12.613171001660191 L205.82100000000014,12.556584219980607 L206.11800000000014,12.50013800717636 L206.41500000000016,12.44383184011025 L206.71200000000016,12.387665198237869 L207.00900000000016,12.331637563591357 L207.30600000000015,12.275748420763534 L207.60300000000015,12.219997256892043 L207.90000000000015,12.164383561643831 L208.19700000000014,12.108906827199291 L208.49400000000014,12.0535665482372 L208.79100000000014,11.99836222191891 L209.08800000000016,11.943293347873464 L209.38500000000016,11.888359428182412 L209.68200000000016,11.833559967364636 L209.97900000000016,11.778894472361799 L210.27600000000015,11.724362452523053 L210.57300000000015,11.669963419590829 L210.87000000000015,11.615696887686 L211.16700000000014,11.561562373293668 L211.46400000000014,11.507559395248336 L211.76100000000017,11.453687474720198 L212.05800000000016,11.39994613520065 L212.35500000000016,11.346334902488195 L212.65200000000016,11.29285330467485 L212.94900000000015,11.239500872131998 L213.24600000000015,11.186277137496631 L213.54300000000015,11.13318163565782 L213.84000000000015,11.0802139037433 L214.13700000000017,11.027373481105599 L214.43400000000017,10.974659909309139 L214.73100000000017,10.922072732116646 L215.02800000000016,10.869611495476306 L215.32500000000016,10.81727574750829 L215.62200000000016,10.76506503849214 L215.91900000000015,10.712978920853743 L216.21600000000015,10.661016949152497 L216.51300000000015,10.609178680068737 L216.81000000000017,10.557463672391009 L217.10700000000017,10.50587148700356 L217.40400000000017,10.45440168687395 L217.70100000000016,10.403053837040886 L217.99800000000016,10.351827504601602 L218.29500000000016,10.30072225869992 L218.59200000000016,10.24973767051415 L218.88900000000015,10.198873313245088 L219.18600000000015,10.148128762104136 L219.48300000000017,10.097503594301372 L219.78000000000017,10.046997389033947 L220.07700000000017,9.996609727474208 L220.37400000000017,9.946340192758498 L220.67100000000016,9.896188369975278 L220.96800000000016,9.846153846153811 L221.26500000000016,9.796236210253085 L221.56200000000015,9.746435053150094 L221.85900000000015,9.69674996762916 L222.15600000000018,9.647180548370386 L222.45300000000017,9.597726391938977 L222.75000000000017,9.54838709677415 L223.04700000000017,9.49916226317822 L223.34400000000016,9.450051493305864 L223.64100000000016,9.401054391153366 L223.93800000000016,9.352170562548167 L224.23500000000016,9.303399615137891 L224.53200000000015,9.254741158380284 L224.82900000000018,9.206194803532526 L225.12600000000018,9.157760163641 L225.42300000000017,9.10943685353078 L225.72000000000017,9.061224489795904 L226.01700000000017,9.013122690788634 L226.31400000000016,8.965131076609794 L226.61100000000016,8.917249269098704 L226.90800000000016,8.86947689182324 L227.20500000000015,8.821813570069764 L227.50200000000018,8.774258930833525 L227.79900000000018,8.726812602809048 L228.09600000000017,8.679474216380186 L228.39300000000017,8.63224340361063 L228.69000000000017,8.58511979823453 L228.98700000000017,8.53810303564677 L229.28400000000016,8.491192752893767 L229.58100000000016,8.444388588664026 L229.87800000000018,8.397690183278883 L230.17500000000018,8.351097178683347 L230.47200000000018,8.304609218436838 L230.76900000000018,8.258225947704204 L231.06600000000017,8.211947013246686 L231.36300000000017,8.165772063412817 L231.66000000000017,8.119700748129674 L231.95700000000016,8.073732718894007 L232.25400000000016,8.027867628763317 L232.5510000000002,7.982105132347442 L232.84800000000018,7.936444885799347 L233.14500000000018,7.890886546807167 L233.44200000000018,7.845429774585057 L233.73900000000017,7.800074229865118 L234.03600000000017,7.7548195748887565 L234.33300000000017,7.709665473398331 L234.63000000000017,7.6646115906288514 L234.92700000000016,7.619657593299621 L235.2240000000002,7.574803149606282 L235.52100000000019,7.53004792921223 L235.81800000000018,7.485391603240828 L236.11500000000018,7.440833844267274 L236.41200000000018,7.3963743263105926 L236.70900000000017,7.352012724825613 L237.00600000000017,7.307748716695187 L237.30300000000017,7.26358198022217 L237.60000000000016,7.219512195121922 L237.8970000000002,7.175539042514288 L238.1940000000002,7.131662204915983 L238.49100000000018,7.087881366233091 L238.78800000000018,7.044196211753217 L239.08500000000018,7.000606428138212 L239.38200000000018,6.957111703416501 L239.67900000000017,6.9137117269756345 L239.97600000000017,6.870406189555126 L240.27300000000017,6.827194783238724 L240.5700000000002,6.784077201447531 L240.8670000000002,6.7410531389323864 L241.1640000000002,6.698122291766936 L241.46100000000018,6.655284357340349 L241.75800000000018,6.61253903435022 L242.05500000000018,6.5698860227954015 L242.35200000000017,6.527325023969297 L242.64900000000017,6.484855740452531 L242.9460000000002,6.442477876106182 L243.2430000000002,6.4001911360649615 L243.5400000000002,6.3579952267302815 L243.8370000000002,6.315889855763487 L244.13400000000019,6.273874732079037 L244.43100000000018,6.231949565837965 L244.72800000000018,6.190114068441062 L245.02500000000018,6.1483679525222215 L245.32200000000017,6.106710931942132 L245.6190000000002,6.065142721781342 L245.9160000000002,6.023663038334121 L246.2130000000002,5.98227159910175 L246.5100000000002,5.940968122786273 L246.8070000000002,5.89975232928407 L247.10400000000018,5.858623939679546 L247.40100000000018,5.817582676238658 L247.69800000000018,5.776628262402994 L247.99500000000018,5.735760422783301 L248.2920000000002,5.6949788831533965 L248.5890000000002,5.654283370444148 L248.8860000000002,5.6136736127370455 L249.1830000000002,5.573149339258521 L249.4800000000002,5.532710280373806 L249.77700000000019,5.492356167580795 L250.07400000000018,5.452086733504302 L250.37100000000018,5.411901711890039 L250.66800000000018,5.371800837598869 L250.9650000000002,5.331783846600786 L251.2620000000002,5.2918504759693406 L251.5590000000002,5.252000463875618 L251.8560000000002,5.2122335495829475 L252.1530000000002,5.17254947344054 L252.4500000000002,5.132947976878597 L252.74700000000018,5.093428802402116 L253.04400000000018,5.053991693585601 L253.34100000000018,5.0146363950673845 L253.6380000000002,4.975362652544334 L253.9350000000002,4.936170212765944 L254.2320000000002,4.897058823529392 L254.5290000000002,4.858028233673792 L254.8260000000002,4.819078193074972 L255.1230000000002,4.780208452640011 L255.4200000000002,4.741418764302068 L255.71700000000018,4.702708881014928 L256.0140000000002,4.664078556748109 L256.3110000000002,4.625527546481067 L256.6080000000002,4.587055606198646 L256.9050000000002,4.548662492885569 L257.20200000000017,4.510347964521259 L257.4990000000002,4.472111780074954 L257.7960000000002,4.433953699500648 L258.0930000000002,4.395873483731975 L258.3900000000002,4.357870894677205 L258.6870000000002,4.319945695214358 L258.9840000000002,4.282097649186198 L259.2810000000002,4.2443265213955215 L259.5780000000002,4.2066320775998065 L259.87500000000017,4.169014084507012 L260.1720000000002,4.131472309770345 L260.4690000000002,4.094006521983545 L260.7660000000002,4.05661649067622 L261.0630000000002,4.019301986309017 L261.3600000000002,3.9820627802690183 L261.6570000000002,3.9448986448650203 L261.9540000000002,3.9078093533228753 L262.2510000000002,3.870794679780886 L262.5480000000002,3.8338543992853715 L262.8450000000002,3.7969882877858367 L263.1420000000002,3.760196122130594 L263.4390000000002,3.723477680062274 L263.7360000000002,3.6868327402135037 L264.0330000000002,3.650261082101963 L264.3300000000002,3.613762486126518 L264.6270000000002,3.577336733562447 L264.9240000000002,3.5409836065573472 L265.22100000000023,3.5047028881265874 L265.5180000000002,3.468494362148988 L265.8150000000002,3.432357813362785 L266.1120000000002,3.3962930273609686 L266.4090000000002,3.360299790587419 L266.7060000000002,3.324377890332471 L267.0030000000002,3.288527114728822 L267.3000000000002,3.2527472527472128 L267.5970000000002,3.217038094192503 L267.89400000000023,3.181399429699468 L268.1910000000002,3.1458310507285887 L268.4880000000002,3.110332749562133 L268.7850000000002,3.074904319300117 L269.0820000000002,3.0395455538562146 L269.3790000000002,3.0042562479537196 L269.6760000000002,2.969036197121625 L269.9730000000002,2.93388519769087 L270.2700000000002,2.898803046789965 L270.56700000000023,2.8637895423415216 L270.8640000000002,2.8288444830582193 L271.16100000000023,2.793967668438711 L271.4580000000002,2.7591588987643263 L271.7550000000002,2.7244179750947524 L272.0520000000002,2.689744699264395 L272.3490000000002,2.655138873878741 L272.6460000000002,2.6206003023104927 L272.9430000000002,2.5861287886958735 L273.24000000000024,2.5517241379310462 L273.5370000000002,2.517386155667964 L273.83400000000023,2.483114648311414 L274.1310000000002,2.448909423014925 L274.4280000000002,2.4147702876770722 L274.7250000000002,2.380697050938295 L275.0220000000002,2.3466895221769732 L275.3190000000002,2.312747511505904 L275.6160000000002,2.278870829769005 L275.91300000000024,2.2450592885375045 L276.2100000000002,2.2113127001067028 L276.50700000000023,2.17763087749222 L276.8040000000002,2.1440136344269263 L277.1010000000002,2.1104607853569632 L277.3980000000002,2.076972145439072 L277.6950000000002,2.0435475305363298 L277.9920000000002,2.0101867572155925 L278.2890000000002,1.9768896427435152 L278.58600000000024,1.9436560050836533 L278.8830000000002,1.9104856628928246 L279.18000000000023,1.8773784355179828 L279.4770000000002,1.8443341429929205 L279.7740000000002,1.8113526060349727 L280.0710000000002,1.77843364604189 L280.3680000000002,1.7455770850884278 L280.6650000000002,1.712782745923164 L280.9620000000002,1.680050451965485 L281.25900000000024,1.6473800273022903 L281.5560000000002,1.6147712966848076 L281.85300000000024,1.5822240855255814 L282.1500000000002,1.5497382198952891 L282.44700000000023,1.5173135265195015 L282.7440000000002,1.4849498327758965 L283.0410000000002,1.4526469666910202 L283.3380000000002,1.4204047569372165 L283.6350000000002,1.3882230328296146 L283.93200000000024,1.3561016243231734 L284.2290000000002,1.3240403620097254 L284.52600000000024,1.2920390771149073 L284.8230000000002,1.260097601495147 L285.12000000000023,1.228215767634822 L285.4170000000002,1.1963934086433596 L285.7140000000002,1.164630358252225 L286.0110000000002,1.1329264508120218 L286.3080000000002,1.1012815212897635 L286.60500000000025,1.0696954052658612 L286.9020000000002,1.0381679389312808 L287.19900000000024,1.0066989590848152 L287.4960000000002,0.975288303130128 L287.79300000000023,0.943935809073082 L288.0900000000002,0.9126413155190107 L288.3870000000002,0.881404661669535 L288.6840000000002,0.8502256873204601 L288.9810000000002,0.8191042328584217 L289.27800000000025,0.7880401392586123 L289.5750000000002,0.7570332480818251 L289.87200000000024,0.726083401471783 L290.1690000000002,0.6951904421525228 L290.46600000000024,0.6643542134257814 L290.7630000000002,0.6335745591682667 L291.06000000000023,0.6028513238288724 L291.3570000000002,0.5721843524264614 L291.6540000000002,0.5415734905468526 L291.95100000000025,0.511018584340377 L292.2480000000002,0.4805194805194333 L292.54500000000024,0.45007602635581634 L292.8420000000002,0.4196880696779317 L293.13900000000024,0.38935545886874934 L293.4360000000002,0.35907804286290457 L293.73300000000023,0.3288556711443107 L294.0300000000002,0.29868819374365785 L294.3270000000002,0.26857546123596876 L294.62400000000025,0.2385173247380976 L294.9210000000002,0.2085136359061721 L295.21800000000025,0.17856424693337658 L295.5150000000002,0.14866901054745085 L295.81200000000024,0.11882778000801864 L296.1090000000002,0.08904040910454114 L296.40600000000023,0.05930675215387282 L296.70300000000026,0.02962666399758973 L297.00000000000017,-5.684341886080802e-14"
        />
    </g>
</svg>
